<?xml version="1.0" encoding="utf-8"?>
<!-- Generator: Adobe Illustrator 11 Build 196, SVG Export Plug-In . SVG Version: 6.0.0 Build 78)  -->
<!DOCTYPE svg PUBLIC "-//W3C//DTD SVG 1.0//EN"    "http://www.w3.org/TR/2001/REC-SVG-20010904/DTD/svg10.dtd" [
	<!ENTITY ns_flows "http://ns.adobe.com/Flows/1.0/">
	<!ENTITY ns_extend "http://ns.adobe.com/Extensibility/1.0/">
	<!ENTITY ns_ai "http://ns.adobe.com/AdobeIllustrator/10.0/">
	<!ENTITY ns_graphs "http://ns.adobe.com/Graphs/1.0/">
	<!ENTITY ns_vars "http://ns.adobe.com/Variables/1.0/">
	<!ENTITY ns_imrep "http://ns.adobe.com/ImageReplacement/1.0/">
	<!ENTITY ns_sfw "http://ns.adobe.com/SaveForWeb/1.0/">
	<!ENTITY ns_custom "http://ns.adobe.com/GenericCustomNamespace/1.0/">
	<!ENTITY ns_adobe_xpath "http://ns.adobe.com/XPath/1.0/">
	<!ENTITY ns_svg "http://www.w3.org/2000/svg">
	<!ENTITY ns_xlink "http://www.w3.org/1999/xlink">
]>
<svg 
	 xmlns:x="&ns_extend;" xmlns:i="&ns_ai;" xmlns:graph="&ns_graphs;" i:viewOrigin="-122.8101 798.2681" i:rulerOrigin="0 0" i:pageBounds="0 792 612 0"
	 xmlns="&ns_svg;" xmlns:xlink="&ns_xlink;" xmlns:a="http://ns.adobe.com/AdobeSVGViewerExtensions/3.0/"
	 width="659.984" height="443.169" viewBox="0 0 659.984 443.169" overflow="visible" enable-background="new 0 0 659.984 443.169"
	 xml:space="preserve">
	<metadata>
		<variableSets  xmlns="&ns_vars;">
			<variableSet  varSetName="binding1" locked="none">
				<variables></variables>
				<v:sampleDataSets  xmlns="&ns_custom;" xmlns:v="&ns_vars;"></v:sampleDataSets>
			</variableSet>
		</variableSets>
		<sfw  xmlns="&ns_sfw;">
			<slices></slices>
			<sliceSourceBounds  y="355.099" x="-122.81" width="659.984" height="443.169" bottomLeftOrigin="true"></sliceSourceBounds>
		</sfw>
<?xpacket begin='﻿' id='W5M0MpCehiHzreSzNTczkc9d'?><x:xmpmeta xmlns:x='adobe:ns:meta/' x:xmptk='XMP toolkit 3.0-29, framework 1.6'>
<rdf:RDF xmlns:rdf='http://www.w3.org/1999/02/22-rdf-syntax-ns#' xmlns:iX='http://ns.adobe.com/iX/1.0/'>

 <rdf:Description rdf:about='uuid:516f3c05-710c-11e4-b11a-000d933a9528'
  xmlns:pdf='http://ns.adobe.com/pdf/1.3/'>
  <pdf:Producer>Adobe PDF library 6.66</pdf:Producer>
 </rdf:Description>

 <rdf:Description rdf:about='uuid:516f3c05-710c-11e4-b11a-000d933a9528'
  xmlns:tiff='http://ns.adobe.com/tiff/1.0/'>
 </rdf:Description>

 <rdf:Description rdf:about='uuid:516f3c05-710c-11e4-b11a-000d933a9528'
  xmlns:xap='http://ns.adobe.com/xap/1.0/'
  xmlns:xapGImg='http://ns.adobe.com/xap/1.0/g/img/'>
  <xap:CreateDate>2014-11-11T06:04:16-05:00</xap:CreateDate>
  <xap:ModifyDate>2014-11-20T23:24:30Z</xap:ModifyDate>
  <xap:CreatorTool>Illustrator</xap:CreatorTool>
  <xap:MetadataDate>2014-11-20T18:23:49-05:00</xap:MetadataDate>
  <xap:Thumbnails>
   <rdf:Alt>
    <rdf:li rdf:parseType='Resource'>
     <xapGImg:format>JPEG</xapGImg:format>
     <xapGImg:width>256</xapGImg:width>
     <xapGImg:height>172</xapGImg:height>
     <xapGImg:image>/9j/4AAQSkZJRgABAgEASABIAAD/7QAsUGhvdG9zaG9wIDMuMAA4QklNA+0AAAAAABAASAAAAAEA&#xA;AQBIAAAAAQAB/+4ADkFkb2JlAGTAAAAAAf/bAIQABgQEBAUEBgUFBgkGBQYJCwgGBggLDAoKCwoK&#xA;DBAMDAwMDAwQDA4PEA8ODBMTFBQTExwbGxscHx8fHx8fHx8fHwEHBwcNDA0YEBAYGhURFRofHx8f&#xA;Hx8fHx8fHx8fHx8fHx8fHx8fHx8fHx8fHx8fHx8fHx8fHx8fHx8fHx8fHx8f/8AAEQgArAEAAwER&#xA;AAIRAQMRAf/EAaIAAAAHAQEBAQEAAAAAAAAAAAQFAwIGAQAHCAkKCwEAAgIDAQEBAQEAAAAAAAAA&#xA;AQACAwQFBgcICQoLEAACAQMDAgQCBgcDBAIGAnMBAgMRBAAFIRIxQVEGE2EicYEUMpGhBxWxQiPB&#xA;UtHhMxZi8CRygvElQzRTkqKyY3PCNUQnk6OzNhdUZHTD0uIIJoMJChgZhJRFRqS0VtNVKBry4/PE&#xA;1OT0ZXWFlaW1xdXl9WZ2hpamtsbW5vY3R1dnd4eXp7fH1+f3OEhYaHiImKi4yNjo+Ck5SVlpeYmZ&#xA;qbnJ2en5KjpKWmp6ipqqusra6voRAAICAQIDBQUEBQYECAMDbQEAAhEDBCESMUEFURNhIgZxgZEy&#xA;obHwFMHR4SNCFVJicvEzJDRDghaSUyWiY7LCB3PSNeJEgxdUkwgJChgZJjZFGidkdFU38qOzwygp&#xA;0+PzhJSktMTU5PRldYWVpbXF1eX1RlZmdoaWprbG1ub2R1dnd4eXp7fH1+f3OEhYaHiImKi4yNjo&#xA;+DlJWWl5iZmpucnZ6fkqOkpaanqKmqq6ytrq+v/aAAwDAQACEQMRAD8A9UYq3irsVdirsVdirsVd&#xA;irsVdirsVdirsVdirsVdirsVdirsVdiqT+ZfMtnoVokkqGe7uGMdlZoQHlcCp3Oyoo3dz0HiSAQT&#xA;TCcxEWWIt5h82Xr85L9NPTqsFlFG1AezyXKzc6fzKifLKfFLinVE8kXb3/mmNg8Wrm4bvHeW8Lxk&#xA;e31dbVwffkR7ZITLOOc9WQaB5mj1KWWxuoPqWrWyq81oW5oyN0lgkonqRkgivEMCN1G1bAbciMrT&#xA;vCydirsVdirsVdirsVaxVvFXYq7FXYq7FXYq7FXYq7FXYq7FXYq7FXYq7FXYq7FXYq7FXYq8188E&#xA;v51Ac8hb6dAYAf2DPPP6tP8AX9COv+qMozdHB1h3AYfqfne70zzAmkR6PPdB4mljnQuOZSF5Ssf7&#xA;tkYj0+NPU5b/AGciItUIWLtV8lfmBq2qapa2F9p9GuY5GZ4Ip1EDxz3CUkMgK8fThQ1JU1YUU8vh&#xA;nTdwAM01mQ22o6HfRHjcJcyQcu5ie3kldPkzwIT8slBuxc3oAIIBHQ7jLG9vFXYq7FXYq7FXYq7F&#xA;XYq7FXYq7FXYq7FXYq7FXYq7FXYq7FXYq7FXYq7FXYq7FWiQoJJoBuSegGKpAfNJviY/Llr+lj0N&#xA;8X9GwU/8xPF/V7j9wr0OzccVY/5k8m+YpJl14Xf6T1RIxDdWEUaW8LW4YsotwxZ/UjZiR6srVq1O&#xA;NRSE4WGjPi4x5pFp9xo81+zJ6a6oqenLHInp3aJWvCSNwsqiorRhlFEODwkbFOJtX0vT+P126igZ&#xA;/wC7R2Adz4In2mJpsFFckA2wBKFgtPMPmLVYb20iS2sbLl9Wt7xXUzBwOUshU1gZgOMdVZlBYsu/&#xA;FboinMxwpnEHmOBZktdUhbS7yRgkazkGGVjsBDOP3blj9lDSSm5QZJsTfFXYq7FXYq7FXYq7FXYq&#xA;7FXYq7FXYq7FXYq7FXYq7FXYq7FXYqoxXdrLLNFHKrSW8ghmQHdZDGsoU+/purfI4qvMsQrV1FBU&#xA;1I2FaVxVZDeWs800MMqyS2xVZ1U14M6h1De5Vg1PAjFV31iDjy9ReNC1eQpQdT9GKpL5vuPMaacs&#xA;Hl6MnUJ3Cm4HoMYECs3P0p5Ilk5MgSldgS37NCqhtP8ALl1qtnbXfmxmurqWNJJtGYKtjBIygtGY&#xA;Y3lWYof2pZJByFU44qyYAKAAKAbADoBireKoLU9F0jVIxHqVlBeIv2VnjWSny5A0xVCWflDyxYsx&#xA;s9Ngty32vSXiD8wMVTWOKKJAkaBEHRVAA/DFWp7eC4heC4jWaCVSskUihkZTsQymoIOKpR+hL7T/&#xA;AItDuuEI/wClZdFpLan8sT7ywdgOPJFHSPFVSDzHAsyWuqQtpd5IwSNZyDDKx2AhnH7tyx+yhpJT&#xA;coMVTfFXYq7FXYq7FUu1vXtO0W0jub5nCyyCGGONGkd5CpbiqqD+yjHwAGAmmMpCIspMPzF0Y9LW&#xA;+/6Rz/XI+IGvx4d68fmBpJ6Wl9/yIP8AXDxhPjR714896aelnff8iD/XHjCfFivHnWwPSyvv+RB/&#xA;rjxBPiRXDzhaHpY33/Ij+3DxBeMImx8y2F3dpaGOe2nlBMK3ETRiTjuwV915Ab8a1pUjYGjbIEFN&#xA;sKXYq7FXYq7FXYq8l1W18h6hrUF1cLdXz6d+koDcpacjJNfSj1nEj0DLGYuCfAV492XrEzDUc0Qa&#xA;t0ukflrOoDaXfh1tks1dIFQCJJElK+moEXF3hRmQpwqK8asxI4wvjx70VqFj5B1W2WHUNLv7krJc&#xA;Seq8HxMtyOPpv2ZI1WPgpGxjQ/s4eML40UNB5W/LeO0azTSdRNs0RgEfpABY/V9cKtKUX1Kkr0av&#xA;xBseIJ8WKNs9E8kWtxDcW+l6hHJb3i38BW3jXjIo4gMVVS4C/CGcs4Ffi+JqniCfEDLv8X2tCfqF&#xA;9QbmluT+AJONp4wm9je2t9ZwXtpIJba4RZYZACKq4qDQgEfI4WSvirsVdirsVdirGtQ8+aVa301n&#xA;DbXN7JbN6c726xiNXG5TnNJEGI78a0Ox32yJmA1SzRiaJQ03nnT7qF4J9EvZoJVKyRSCzZGU7EMp&#xA;uKEHB4gR+Yh3sU1vVPMUUtt/hS0v7e1h5zfUri6t0g9dOPopTlcP9XYcxJErqo+HgAd8eMJ8ePez&#xA;RPOvICujX1e4BsyK/wDSQMPGE+LFUHm9z00W/wD+Cs/+ynHiCfEiu/xVNQn9CX5A32Nmf+xnDxBP&#xA;GE00zU7TU7Jby0ZjCxdCHVo3V43MbqyuAwKupBwsmMfmX/vLof8A20v+xK6yvLycfVfQx6LMd14R&#xA;cWSZhFxYQzCMiyQbAjIskzCU+aiQ+ikGhF+SCP8AmDuMlFuxs7yba7FXYq7FXYq7FXjulf7zH/jJ&#xA;L/ydbMSXN1OT6imsWKAi4skGwIyLCzCLiyTYEZFkmYSHyF5k0C20+eC51S0hkSVw0Uk8asG9Rwaq&#xA;zChyxyAyK880eXZbSeK21+xt7h42WG49eCT03KkK/AuA3E70PXFLD9B1bWbHVLyW982WWoWgEMdv&#xA;b3FzaCN/UeIzTK8YWUGGMSKqsAHJ7dcVRnmu8bUtVsLrSPOOnWFrbRzLLbNNCSzyxSRh+VWrQupA&#xA;Ow413rsqm/lrXdE07y7pmn6h5hsLu+s7WG3ubsXMX76SKMI0u7CnMryp2riqLuvO3lmBoUjvo72W&#xA;eT00gsmF1LsjSM3pQl5CFVCTxU4q8+tbq2u5bu6tZUntp728khmjIZHRrqQqysNiCMxcn1Orz/WV&#xA;O+8xafpl6lvekxRmyu9RluT/AHccNi0IlLd/+PkHYdjiAiMbQsH5neSjFNKL2XhaxGe7raXYaBA7&#xA;R/vlMXKIl0YKrgE02ByXCWwYyqH80PLkWiS6sfVeL1J47GKOOSR7j0IfX5AIjGNCm5aQAL+0Rhpm&#xA;IG0ZN+aPli2ubK3d5DJdXq2EoSOVvSkliuHhB4oebStaFFRKtVhkgGYiWdxdsQyCX+RWP1nUVrsb&#xA;m9JHuLyTLA5EeTX5l/7y6H/20v8AsSushl5NGq+hj0WY7rwi4skzCLiwhmEZFkg2BGRZJmEp81/a&#xA;0b/mOP8A1B3OSi3Y2d5NtdirsVdirsVdirx3Sv8AeY/8ZJf+TrZiS5upyfUU1ixQEXFkg2BGRYWY&#xA;RcWSbAjIskzCB/Ln/jlzf8ZG/wCTj5Y5AZbil2KuxV2KoLVNG03VYY4dQgFxDFJ6qxsWCluLJ8QU&#xA;jkpV2BVqgg7jFXmMaRRXuoQRqsYhvrtfSUABAbh2QcR0+BgR7UzFyfU6vUfWVPUPL2jas8T6jarc&#xA;mJJIk5FgPTm4+rGwBAZH9NeStUGmAFjGRHJDW35b+SI0EaaTEqen6TAF/jX1PWHP4vjZZDzVmqVO&#xA;4IyfEW0TKYP5A8nXGnQadNpcTWVuzPDD8QCs0fotuCD8UfwkV3w2zEijZPIXk+6kMtzpcM0hYSBn&#xA;5MVYLIoKVPwf37n4abmvXfCCyEiyqEUAGEMwlvkN0e51BkYMPrN8Kg1FReyA5YHIjyb/ADL/AN5d&#xA;D/7aX/YldZDLyaNV9DHosx3XhFxZJmEXEy8uNRy6070whmEZFkg2BFxMvILUciKgd6Clf15JmEq8&#xA;1/a0b/mOP/UHc5KLdjZ3k212KuxV2KuxV2KvAr3zI+jRKfqv1iFYr6+unEnBkhtJkD8FKkO376tC&#xA;y9PHbMUiy6uUbkferS/mX5UtwpaaeSqo59K3mkIV3aMMwRTQckNcIiUjGUXpv5meU7u9hsxPLbyz&#xA;A/HcwyQxI6xrIYnlcBFk4t9mvbDwln4ZXn82/JcK27zTzxJdpcy2jPBIDNFZo0kksaU5shVG4tx3&#xA;6dSKy4WYgUy038zfLV1NJGBcwCEN6jzwtGFkj+tepEyn4g6fo+WtRTbYnDTLhKI0v81vJt/5ht9A&#xA;t7iY6jdSTxwI0EqIxtnkjdubKBx9S3lQN0LKR4VNMxEpv5P1XTtI8tX2pajOtvZWrM88zVIUeo46&#xA;KCSSdgAKk5Y3hNW/MLyerQA39UuWRIphDOYi0kfqhTKE9NSIwWYMw4jdqYpTHzBrtroekzalcw3F&#xA;xHEUVbezhe4nkeRxHGkcaAklnYAdvE4ql1t5/wDLM8sELSz28txdTWMQntbiNTcW8y28ieo0fp/3&#xA;zhA3LizbAk4qyPFXYqk+r+UPLOryme/0y2nuTSty8MbSkKKAF2UkgDxxpFBLv+VZ+Sv+rZB/yJh/&#xA;5owUvCHf8q08l/8AVsg/5FRf80YaWg3/AMq18mf9W2D/AJFRf80Y0tBv/lW3k7/q2w/8iov+aMVp&#xA;3/Kt/J//AFbof+RUX/NGKaTjS9E07S4/Ts4/TQKEVRQBVHRVAAAGKsc/Mv8A3l0P/tpf9iV1leXk&#xA;4+q+hgvmXQTrumR2BZUj+sQSyllR/gikDtRZUljY7bBlIyiJpwccqKTQ+TvOMc0iQamkNib0yQ20&#xA;UrwxpZtLM7r6cMUf7wiROjgcl6kVDTsNwmFTUvJ35gTWdm2k6nBYX8el/ULljPPJW4CycZRMYjIw&#xA;Vm2qO9eqrWQIZxkFW38j/mWLFQfMsn11PsE3Lsn7uFPRDH0FLfvw/qEj4lp7jDYZCQ7k88heUvO2&#xA;m6qL/wAy6pHqTqt8kbLI8hVbqS1aPgHij4LS2YsnIhSfh26G2VjoyXzX9rRv+Y4/9Qdzhi2Y2d5N&#xA;tdirsVdirsVdirxGDR9Kv0hmvbSK5ktpJ/QaVA/DlNU05V7op+YGYpO7qpyIkUVbeUfK8TStFpVq&#xA;jXBJmKxKOZLczyoN/iNcbKiZ72JaD5u/KS0vB5iJW01XU0kkBa3llaIQQr66RyRxMKfB8VDu/JR8&#xA;VRk6LeYy5InVdT/I2LT7tL+CCxjKSwtL+j7iKRPrqOsvo8oK8uPPmFB4b8gN8kLZxEmWeXvLHkDX&#xA;tEiuE8vWQs+c1ukDwxsvG3upl6AUIaQu/wDsj4nFNkMosvK3ly1vYb62023hvLcSiG4SNVdRcSNL&#xA;KAw3o8krsfck4WQKXeUNP1LUNGu7Oe20+70+SU8re7RpVYLMzJyQgqSGAPzyxvCbXPkxbm8tLyXS&#xA;tINzYyxz20ixyJxkhjaKJiFoG9NHYJyrx7UxSi/0DqB079GvZaXLYczKbaZJZUMhkMxciTlVvUPO&#xA;p3rviqCv/LUqXMetvpmlNe6b61zBIqypSR0AdyB8LPxQAOwJXt1OKsrs5zcWkE5HEzRrIV605KDT&#xA;FVbFXYq7FXYq7FXYq7FXYqw38y/95dD/AO2l/wBiV1leXk4+q+hj0WY7rwi4skzCLiwhmEZFkg2B&#xA;GRZJmEp81/a0b/mOP/UHc5KLdjZ3k212KuxV2KuxV2KvHdK/3mP/ABkl/wCTrZiS5upyfUU1ixQE&#xA;ntfy78mw19HTVhDRvA4jkmQNFKixujBXAZWVBUHvv13yfEW4TKaXfkzy1qDK91ZB5ElNxHKryJIk&#xA;rP6hdHRlZGLd1Pt0OEFnGRT7S9Ps7C2FtZxiKAPJIEBJHKV2kc7k/adycLJNIskzCB/Ln/jlzf8A&#xA;GRv+Tj5Y5AZbil2KoTVv+OVe/wDGCX/iBxV2k/8AHKsv+MEX/EBiqLxVLr3zH5esLg219qlpa3AA&#xA;YwzzxRuAeh4swNDii1D/ABj5Q/6vmn/9JUP/ADVitu/xj5R/6vmn/wDSVD/zVitt/wCMPKX/AFe7&#xA;D/pKh/5qxTbv8X+U/wDq92H/AElQ/wDNWK27/F/lP/q9WH/SVD/zViqZwTwXECTwSLLBKoeKVCGR&#xA;lYVDKw2IIxViP5l/7y6H/wBtL/sSusry8nH1X0MeizHdeEXFkmYRcWEMwjIskGwIyLJMwlPmv7Wj&#xA;f8xx/wCoO5yUW7GzvJtrsVdirsVdirsVeO6V/vMf+Mkv/J1sxJc3U5PqKaxYoCLiyQbAjIsLMIuL&#xA;JNgRkWSZhA/lz/xy5v8AjI3/ACcfLHIDLcUuxVCat/xyr3/jBL/xA4q7Sf8AjlWX/GCL/iAxV2o6&#xA;rpumxJNqFzHaQyOI1lmYInIgtTkdhsp64q8w2Oo6nL1eW/uy79S3Cd40qe/FEVR7ADMXJ9Tq9R9Z&#xA;Q2jeaNA1RC9jfRyhX9Mgko3IrzHwuFY8k+IGm43G2NFHCRzTlL+xVWdrmJVjAMjF1AUE8RU12qwp&#xA;hDIBFWupadNII4rqKSTm8XBXUn1Iv7xKA/aT9odsLMBdB5j0RtSn01btTd2qCW5WjcY0JYVaSnpj&#xA;eNqjlUUyTYAmWj6tp2qW31mwmE0IeSMsAVIaKRonBVgDs8bDpv2yTOlvkSeQfXrQUFul1fMkYAAU&#xA;m9lJpTxLZMORHkp/mX/vLof/AG0v+xK6yGXk0ar6GPRZjuvCLiyTMIuLCGYRkWSDYEZFkmYSnzX9&#xA;rRv+Y4/9Qdzkot2NneTbXYq7FXYq7FXYq8d0r/eY/wDGSX/k62Ykubqcn1FNYsUBFxZINgRkWFmE&#xA;XFkmwIyLJMwkHkLy55eubC4ludLtJpWlctJJBE7EmR6kkqTljkBONd8ueXrW1t7i20u0gnjv9PKS&#xA;xQRI6k3sI2ZVBGKWTYqtdEkRkdQ6OCrKwqCDsQQcVSseUvKgAA0WwAGwAtof+acVQ955I8uTtA8F&#xA;pHp81vIZFnsY4oJSGjeJ4zIqcgrpIwPEg+BBxV57YWNpp/1iws4hBaWl3dw28K9EjjuZFVRXwAzF&#xA;yfU6vP8AWWGD8kfLTPZlbq5VLUlxFVSjyssStKwp9o/VozttUdMlxlmMxRd1+R/lW5hWOCR7Mgbm&#xA;KG2KuaItZEeNkegQ05DYmuETLIZSmmkfk95esNf0/WIrid5NNZ2toH4cKuB8TFVUs4PL4juQaHoM&#xA;PEy8QkOtPyO0CGC8hW/ueN6vpu3C3V1USmUMGSNeUoJ/vHq1RXDxMxNmfkvyZZeVxqCWdxLNHqV0&#xA;97KswSqzSkl+LKqniRxAB6U264bZXaP8i/716h/zE3v/AFGSZMN8eSfeYPL1lrlpDb3MksLW8ouL&#xA;eeBgrpIFZKjkHRqpIykMpG/jQ4kWiUBIUWMf8q31BSeOvXNO1Uta/wDJjI+GGr8vBcPy91UdNfuf&#xA;+Rdr/wBUMfDCfAihr7yhrlrdabCmvzlby5aFyY7XYC3mm2/ceMQw8AT4MUwHknXB08wXH/Iu1/7J&#xA;8eEJ8KK8eTvMA6eYbj/kVaf9k+PCE+GHDyRfy3UE9/q0t79X5egsixqqFxxZwsKRBm47AtWgrSlT&#xA;hAZCIDL8KXYq7FXYq7FXYqwy+/LeJp5JNO1S6so5ZHlNsBA8amRi7BDJE7gcidixp0FAAMgcYLTL&#xA;BAm6UB+XWpjpr1z/AMBa/wDVDHwwv5eClf8AkvWLGwubtdZvblreJ5BbwQ2zyyFFJCIot92alBjw&#xA;BPgRQHlHQvMeraa81xrV1HNFKYjL9VihilFAweETWyuVHLgaj7St2ph4Anwop8PJmvDp5huP+RVp&#xA;/wBk+PCF8MLv8I+YqEDzFcCvcRWn/ZPh4QngCb+W9Aj0SxFpG3JFCqvU7KKCrMSzE9ST1ws2/M3/&#xA;ABzof+Y7T/8AqOhxVNsVdirsVdirE9X/AC/tby7mu7K/uNOkuHMk8UXpPEzt9pwsschUsdzxNCd6&#xA;VJORMAWqWGMjZQY/Li/HTzBdf8irX/qjg8MI/LwXj8vtSHTzDdf8irT/AKo48AXwIrx5E1YdPMV1&#xA;/wAibT/qjh4AnwYrx5K1odPMVz/yJtP+qGPCE+GFQeUNdHTzHc/8ibT/AKoYeEJ4AmPl7y2mjK4E&#xA;xmL8izN9pmkcySOxJ6s5Jws06xV2KuxVKdZ/46Og/wDMc/8A1A3OKptirsVdirsVdirsVdirsVdi&#xA;rsVdirsVSnyt/wAcG1/2f/JxsVTbFWJ+YvPsOieYotLuLb/Q1sJdSvdQJm4wwwlgdo4ZUH2esskY&#xA;8CTtiqWW/wCdfk26WzuLV5X064khiub6SKSOOA3EYki5EqVb7S8yGog+JjTFWQalqNtqflzT9RtC&#xA;xtb250y4gLqUYxy3kDqSrAMtQehxVP8AFXYq7FXYq7FXYq7FXYq7FXYq7FXYq7FXYqlOs/8AHR0H&#xA;/mOf/qBucVTbFXYq7FXYq7FXYq7FXYq7FXYq7FXYqlPlb/jg2v8As/8Ak42KptirAPPuueQbPX7W&#xA;x8xaZFe6hdWhW1Mvo1lhll9KSBPVdA32qsvSmKsHtPOf5deYBdeUNN8qTwRXcNo05tBBCrfpJYEM&#xA;RdqcA9vc8HbZuIcCjBaqvYPMSJHpVvHGoREvdOVEUUAAvYQAAMVTfFXYq7FXYq7FXYq7FXYq7FXY&#xA;q7FUm80eYl0Ozt5Rbm6nu5xbW0XIRrzMbyku9G4qEibop37YJSoMMkxEWUhXz9rTdNHtv+k2T/sl&#xA;yvxQ0fmo9yovnfXW/wClRa/9J0n/AGS4fECfzI7ki11NT1rWbDUpNMslFtxFxG1y0jSJE/qxCORr&#xA;XlCVkqGK/aRmU9ip8QMvzAZOvmjzC3TSrT/pOl/7JceNPjBUXzD5jbppdn/0nS/9kmHiZeKFa28y&#xA;3Md5BbataRWa3ZMdtPDOZ0MqqX9N+UcBUlFYqaEbGpG1SCyjK0/wsnYq7FXYq7FXYq7FXYq7FUp8&#xA;rf8AHBtf9n/ycbFU2xVgf5k+d73y1LbmPRl1K3aEvJO6ylY3e5ggRGMcU3EN6pbYMSVpxrSqrEIP&#xA;zg84vdxxN5Gmt3Nrbt+k5be7FtFzuIYi3wwNO0fCb1AvBWXjQ9GKqsk0Dzj5i8y6bqTaxobaKljr&#xA;Njb2QkLc5o11CNeTK6qR9gMCNiG28Sq9HxV2KuxV2KvKLufULvVtSmm1G+B+uXESRQ3dxBEkcErQ&#xA;oqRwuij4Y6k0qTUnMeczbr82aQmQCvjgnNK6hqP/AHEL3/qtg4yxGafeiY7RzSt9qH/cQvf+q2Hj&#xA;LIZZd6Jj0+vW91D/ALiF7/1WyXEWYyS70THpcZ63eof9xC9/6rYeIsxMomHSLZwCLu/YeI1C97f8&#xA;9sNlmJFFeStSuJreexnd5vqk1zFDNKzSSGOK5kjRXdyWcqoA5E1Pck75MNw5IP8AMv8A3l0P/tpf&#xA;9iV1kMvJo1X0PJ/NPmjW9C1p7iGKa806K2jdrVYWjiDmdFdRO6cZZpEf90iSVDLQoeVRVEW4mOII&#xA;UL7zf+ZNpHJLHpCzzW6zxG3isrt45po1tyrJKG58BzmavCjceCFmKtkgA2RjHvTLTvNv5kST2ZuN&#xA;EhW2ee2iueEF4HCSSWcc0ieoEoo+uu45LssL8u5U0GXDFE3PnTz/AB3GoLbaKzrayX6xxfUbp2MV&#xA;s6rauspkiinNwr+pxjNQAV3bCAGQiGofOX5n3lpBewaKbWa3hiuLiwltboCQmxeaeDk3FzJ6wCR8&#xA;V4glQWZiyqaZgBnnmv7Wjf8AMcf+oO5wxZ42d5NtdirsVdirsVdirsVdirsVSnyt/wAcG1/2f/Jx&#xA;sVR97dw2VnPeTkiG2jeaUqCx4xqWagG52GKpJd+a9AMQh1SGRVa8is/Se3knT6wYI7tamNJEARWB&#xA;9QnjVeu2KqUH5heX39f1BcxLbRXM8rG3mcCO0uJraTZFZuXK2c8OPKmKoK985aHrOqzeW4jeQzWz&#xA;6fNPdrF6TQyzTerAvC4jNSHiTmOBoG3pQ0VT79Daj/1fr7/gLH/smxV36G1H/q/X3/AWP/ZNirv0&#xA;NqP/AFfr7/gLH/smxVLNd8qavfpaCPWJp/Qn9Vo7oRogHpSRhwbOO1m5ozh1pKu46jFXlHmPy5qt&#xA;7pbabbyx6he2mpzO91qD8EkaG5lBkmijhkjm5d4+Kiu4ZWCkY8jUi67JIDIbSKHyJ+ZUM8Udpr/o&#xA;2Uaugrd3DuQzyndZInq7c435lzx48ACprjxBPHHuVLjy7+atpfw8dSkurefUwYYbW4l4w2rPEDJO&#xA;84LEJEjExcipLMQahVJBDMSindj5N/Mr/CcGn3PmInWlu57ia/juJN0NjLHCisYQeP1wxytGykBa&#xA;gVFFw2E8Ub5LbryL+bRvZvqPmYCwWKWKzjluZhLxe6kkCysIHqxt3RPVB5IRtUdSCGYkEZ5a/L/8&#xA;xtL1XTZl1W1j0+O+N1qkEc07PNG0McZQ1iRJPiVz8ajsQRuMlbKw9C8i/wC9eof8xN7/ANRkmSDd&#xA;Hk78y/8AeXQ/+2l/2JXWQy8mjVfQxxEVgAwDAEEVFdxuDmOHXhjmpeZfOcOq6raaVoa38FlHE1tN&#xA;6gjLyyCM+mQ7LX7TnkNhTucsADfGIoWU0sta81vepHNpZW39eQc1BHKGkyxcixPE8kjZj4P7HDTK&#xA;girbVfOT2drLPpwtrqWKV5LVAJAsi3MCQxu4ZgvKN3qw7VbbjTCzADLrC6+sK7CKSIJI8Q9VeBb0&#xA;2Kl1B34kj4T3G42phSEB5r+1o3/Mcf8AqDuclFuxs7yba7FXYq7FXYq7FXYq7FXYqlPlb/jg2v8A&#xA;s/8Ak42KpqQGBBFQdiD0IxVL/wDDnl6tf0XaVNKn0Iv2RxX9nspoMVXHQdDMSwnTrUxLz4x+jHxH&#xA;qfboKU+KnxeOKqg0nShPFcCygE8ICwyiJOaKoKqFalQADQUxVF4q7FXYq7FWAat5H8wR393caXPb&#xA;z211O86wTKySRtMS8g5huLjmSRsKVpvSuVyx2bcbJphI3aFXyv54X/dNp/wR/wCasHhMfyo71VfL&#xA;/nlf+Pe0/wCDP/NWPhsvy3mrLo/npf8Aj2s/+DP9cPhp8DzVV07z0v8Ax6Wf/Ixv64eBl4PmrLbe&#xA;e1/487P/AJGN/XDwsvDR3lHQ9S0713v+PqzNLI5SgUvPM0zcQGeiqWoKnJMwEF+Zf+8uh/8AbS/7&#xA;ErrK8vJo1X0MdQ0UmhagrQdT8sxw68MO0zV/zWWd/rWlW8ii0LheQCG6aZnRFdW5UWBwj1Q1ddqV&#xA;yyg5FRTBde/MWO/uLNNHjuF9TnFdcgqrC04jACkgEiOrCr1PEkhQyDCAGQEURoev/mYs1tp+o6LA&#xA;9wY3eW7MvCJuF2kRIaNXofRl5UKLWnLxRZbM6DK/I8/mKfQopfMUbQ6uzN9ahKRoiN3WL0nlDRg/&#xA;ZZm5EbmmKduiv5r+1o3/ADHH/qDuclFtxs7yba7FXYq7FXYq7FXYq7FXYqlPlb/jg2v+z/5ONiqb&#xA;Yq7FXYq7FXYq7FXYq7FXYq7FXYq7FXYq7FXYqlfmDy9Za7aQ291JLC1vKLi3ngYK6SBWSo5B0aqS&#xA;MpDKRv40OAi2MoCQosY/5VvqCk8deuadqpa1/wCTGR8MNX5eC4fl7qo6a/c/8i7X/qhj4YT4EULq&#xA;3k/XbK0jli1+45Nc2sJrHan4Z7mOJv8AdH8rnDwBPgxTEeSdcHTzBcf8i7X/ALJ8eEJ8KK8eTvMA&#xA;6eYbj/kVaf8AZPjwhPhhZJ5RnW6tp9V1prjg/p2q3HoxqJJRT4FjSENIVqBWppWnU1IDIRAZlhS7&#xA;FXYqoy3lnD63qzxx/V4xNccnVfTiPKkj1Pwr8DbnbY+GKr5poYYzJNIscYIBdyFFWNAKnxJpirUN&#xA;xbz8/RlSX0nMcnBg3F16q1OhHhiqpirsVdiqU+Vv+ODa/wCz/wCTjYqm2KuxV2KuxV2KuxV2KuxV&#xA;2KuxV2KuxV2KuxV2KuxV2KuxVJ/Nc0UOkJNM6xxR3lg8kjkKqqt7CSzE7AAYqu/xZ5V/6vNj/wBJ&#xA;MP8AzVirv8WeVf8Aq82P/STD/wA1Yqxf8xf0R5n0KKx0zzTY6ZeQXUd1Fdi5SqmINsDG6uteXVWD&#xA;D9kg0OKsIj8reYhNeTL+ZkUMtzfTXfM6pJNGIpHrFAkPKIRiMFf2mDemq0VHkUqo/wAl+X73Rbm1&#xA;bUvzCW9jitBC0zar68sM3rSSSNGk6vBMkwdV/fRl4woCviqB0byfq9lbxfWPzOFxew3RufXk1SR4&#xA;nLXNszloVeEcHtoZk9Jiyq0lVYdlUDF5B1l4kW8/MSxnllsJbG+uHv5pGkVzfkRsjSiOVP8AT0FZ&#xA;FLIE+CmKopPJeptewyXn5iQX9suoTXlxBcapKY3Vp4ZYWSGNo1X044Gj9Fy8fxlhSlMVXa55O1K5&#xA;1jW7zSPP9jp9nqc73AsU1C4iWUySIwEhhnX0fSEZo0IBfkQ9RiqppHlDU7bzHa6lqn5i22q21lfW&#xA;92sUmoTJ6wj9RWLxiYxRFI5eKog4vT48Veuf4s8q/wDV5sf+kmH/AJqxV3+LPKv/AFebH/pJh/5q&#xA;xVrym6P5es3RgyOHZGBqCpdiCCOxGKpvirsVdirsVdirsVdirsVdirsVdirsVdirsVdirW+Ku3xV&#xA;2+Ku3xV2+Ku3xV2+Ku3xV2+Ku3xV2+Ku3xV2+Ku3xV2+Ku3xV2+Ku3xV2+Ku3xV2+Ku3xV2+Ku3x&#xA;V2+Ku3xV2+Ku3xV2+Ku3xV2+Ku3xV//Z</xapGImg:image>
    </rdf:li>
   </rdf:Alt>
  </xap:Thumbnails>
 </rdf:Description>

 <rdf:Description rdf:about='uuid:516f3c05-710c-11e4-b11a-000d933a9528'
  xmlns:xapMM='http://ns.adobe.com/xap/1.0/mm/'>
  <xapMM:DocumentID>uuid:ccfd6a0c-6996-11e4-baf7-000d933a9528</xapMM:DocumentID>
 </rdf:Description>

 <rdf:Description rdf:about='uuid:516f3c05-710c-11e4-b11a-000d933a9528'
  xmlns:dc='http://purl.org/dc/elements/1.1/'>
  <dc:format>image/svg+xml</dc:format>
 </rdf:Description>

</rdf:RDF>
</x:xmpmeta>
                                                                                                                                                                                                                                                                                                                                                                                                                                                                                                                                                                                                                                                                                                                                                                                                                                                                                                                                                                                                                                                                                                                                                                                                                                                                                                                                                                                                                                                                                                                                                                                                                                                                                                                                                                                                                                                                                                                                                                                                                                                                                                                                <?xpacket end='w'?>
			</metadata>
		<g id="Layer_1" i:layer="yes" i:dimmedPercent="50" i:rgbTrio="#4F008000FFFF">
			
				<rect x="0.005" y="0.005" i:knockout="Off" fill="none" stroke="#FCFCFC" stroke-width="0.01" width="659.974" height="443.16"/> 
			<g>
				<path i:knockout="Off" fill="#CCCCCC" d="M144.27,253.134c0,3.118-2.551,5.669-5.669,5.669H26.1
					c-3.118,0-5.669-2.551-5.669-5.669V108.481c0-3.118,2.551-5.669,5.669-5.669h112.501c3.118,0,5.669,2.551,5.669,5.669V253.134z"
					/>
				<linearGradient id="XMLID_8_" gradientUnits="userSpaceOnUse" x1="-197.7153" y1="175.8071" x2="177.7903" y2="175.8071">
					<stop  offset="0" style="stop-color:#169133"/>
					<stop  offset="1" style="stop-color:#FFFFFF"/>
					<a:midPointStop  offset="0" style="stop-color:#169133"/>
					<a:midPointStop  offset="0.5" style="stop-color:#169133"/>
					<a:midPointStop  offset="1" style="stop-color:#FFFFFF"/>
				</linearGradient>
				<path i:knockout="Off" fill="url(#XMLID_8_)" stroke="#000000" d="M137.27,248.134c0,3.118-2.551,5.669-5.669,5.669H19.1
					c-3.118,0-5.669-2.551-5.669-5.669V103.481c0-3.118,2.551-5.669,5.669-5.669h112.501c3.118,0,5.669,2.551,5.669,5.669V248.134z"
					/>
			</g>
			<g i:knockout="On"  a:adobe-knockout="true">
				<g i:knockout="On">
					
						<line i:knockout="Off" fill="#FFFFFF" stroke="#000000"  a:adobe-knockout="false" x1="473.888" y1="228.668" x2="511.371" y2="228.668"/>
					
						<line i:knockout="Off" fill="#FFFFFF" stroke="#000000"  a:adobe-knockout="false" x1="429.163" y1="336.102" x2="517.089" y2="336.102"/>
				</g>
				<polygon i:knockout="Off" fill="#FFFFFF" stroke="#000000"  a:adobe-knockout="false" points="509.912,341.39 518.548,336.404 
					509.912,331.418 "/>
			</g>
			<g i:knockout="On"  a:adobe-knockout="true">
				<g i:knockout="On">
					
						<line i:knockout="Off" fill="#FFFFFF" stroke="#000000"  a:adobe-knockout="false" x1="75.426" y1="253.531" x2="75.426" y2="312.544"/>
				</g>
				<polygon i:knockout="Off" fill="#FFFFFF" stroke="#000000"  a:adobe-knockout="false" points="80.427,311.085 75.441,319.721 
					70.456,311.085 "/>
			</g>
			<g i:knockout="Off">
				<path i:knockout="Off" d="M140.017,419.229h0.036c0.216-0.306,0.504-0.701,0.756-0.99l2.574-3.006h1.89l-3.366,3.582
					l3.834,5.131h-1.926l-2.988-4.194l-0.81,0.918v3.276h-1.584v-12.781h1.584V419.229z"/>
				<path i:knockout="Off" d="M147.898,419.86c0.036,2.142,1.386,3.023,2.97,3.023c1.134,0,1.836-0.198,2.412-0.432l0.288,1.115
					c-0.558,0.252-1.53,0.559-2.916,0.559c-2.664,0-4.284-1.782-4.284-4.393c0-2.646,1.566-4.716,4.104-4.716
					c2.844,0,3.582,2.502,3.582,4.104c0,0.324-0.018,0.576-0.054,0.756L147.898,419.86z M152.524,418.725
					c0.018-0.99-0.414-2.574-2.178-2.574c-1.62,0-2.304,1.477-2.43,2.574H152.524z"/>
				<path i:knockout="Off" d="M156.701,415.233l1.242,1.854c0.324,0.504,0.594,0.937,0.882,1.422h0.054
					c0.288-0.504,0.576-0.954,0.882-1.422l1.206-1.854h1.728l-2.97,4.213l3.042,4.5h-1.8l-1.278-1.963
					c-0.342-0.504-0.63-0.99-0.936-1.512h-0.036c-0.288,0.521-0.594,0.99-0.918,1.512l-1.26,1.963h-1.746l3.096-4.446l-2.952-4.267
					H156.701z"/>
				<path i:knockout="Off" d="M164.929,419.86c0.036,2.142,1.386,3.023,2.97,3.023c1.134,0,1.836-0.198,2.412-0.432l0.288,1.115
					c-0.558,0.252-1.53,0.559-2.916,0.559c-2.664,0-4.284-1.782-4.284-4.393c0-2.646,1.566-4.716,4.104-4.716
					c2.844,0,3.582,2.502,3.582,4.104c0,0.324-0.018,0.576-0.054,0.756L164.929,419.86z M169.555,418.725
					c0.018-0.99-0.414-2.574-2.178-2.574c-1.62,0-2.304,1.477-2.43,2.574H169.555z"/>
				<path i:knockout="Off" d="M179.257,423.639c-0.414,0.198-1.332,0.504-2.502,0.504c-2.628,0-4.338-1.781-4.338-4.464
					s1.836-4.644,4.68-4.644c0.936,0,1.764,0.233,2.196,0.468l-0.36,1.206c-0.378-0.198-0.972-0.414-1.836-0.414
					c-1.998,0-3.078,1.494-3.078,3.312c0,2.016,1.296,3.258,3.024,3.258c0.9,0,1.494-0.217,1.944-0.414L179.257,423.639z"/>
				<path i:knockout="Off" d="M184.783,418.509v1.151h-4.446v-1.151H184.783z"/>
				<path i:knockout="Off" d="M187.537,419.86c0.036,2.142,1.386,3.023,2.97,3.023c1.134,0,1.836-0.198,2.412-0.432l0.288,1.115
					c-0.558,0.252-1.53,0.559-2.916,0.559c-2.664,0-4.284-1.782-4.284-4.393c0-2.646,1.566-4.716,4.104-4.716
					c2.844,0,3.582,2.502,3.582,4.104c0,0.324-0.018,0.576-0.054,0.756L187.537,419.86z M192.163,418.725
					c0.018-0.99-0.414-2.574-2.178-2.574c-1.62,0-2.304,1.477-2.43,2.574H192.163z"/>
				<path i:knockout="Off" d="M195.655,417.591c0-0.918-0.018-1.638-0.072-2.358h1.404l0.09,1.422h0.036
					c0.432-0.81,1.44-1.619,2.88-1.619c1.206,0,3.078,0.72,3.078,3.707v5.203h-1.584v-5.022c0-1.404-0.522-2.593-2.016-2.593
					c-1.026,0-1.836,0.738-2.124,1.621c-0.072,0.197-0.108,0.486-0.108,0.738v5.256h-1.584V417.591z"/>
				<path i:knockout="Off" d="M211.783,421.858c0,0.756,0.036,1.493,0.126,2.088h-1.422l-0.144-1.099h-0.054
					c-0.468,0.685-1.422,1.296-2.664,1.296c-1.764,0-2.664-1.242-2.664-2.502c0-2.105,1.872-3.258,5.238-3.24v-0.18
					c0-0.72-0.198-2.034-1.98-2.016c-0.828,0-1.674,0.234-2.286,0.647l-0.36-1.062c0.72-0.45,1.782-0.756,2.88-0.756
					c2.682,0,3.33,1.817,3.33,3.563V421.858z M210.234,419.5c-1.728-0.036-3.69,0.27-3.69,1.962c0,1.044,0.684,1.512,1.476,1.512
					c1.152,0,1.89-0.72,2.142-1.458c0.054-0.161,0.072-0.342,0.072-0.504V419.5z"/>
				<path i:knockout="Off" d="M214.32,411.165h1.584v5.455h0.036c0.558-0.973,1.566-1.584,2.97-1.584c2.16,0,3.672,1.8,3.672,4.428
					c0,3.132-1.98,4.68-3.924,4.68c-1.26,0-2.25-0.486-2.916-1.638h-0.036l-0.09,1.44h-1.368c0.054-0.595,0.072-1.477,0.072-2.25
					V411.165z M215.904,420.454c0,0.197,0.018,0.396,0.054,0.576c0.306,1.098,1.242,1.854,2.376,1.854
					c1.674,0,2.646-1.35,2.646-3.348c0-1.764-0.9-3.258-2.592-3.258c-1.08,0-2.088,0.756-2.394,1.943
					c-0.054,0.198-0.09,0.414-0.09,0.666V420.454z"/>
				<path i:knockout="Off" d="M224.562,411.165h1.584v12.781h-1.584V411.165z"/>
				<path i:knockout="Off" d="M229.674,419.86c0.036,2.142,1.386,3.023,2.97,3.023c1.134,0,1.836-0.198,2.412-0.432l0.288,1.115
					c-0.558,0.252-1.53,0.559-2.916,0.559c-2.664,0-4.284-1.782-4.284-4.393c0-2.646,1.566-4.716,4.104-4.716
					c2.844,0,3.582,2.502,3.582,4.104c0,0.324-0.018,0.576-0.054,0.756L229.674,419.86z M234.3,418.725
					c0.018-0.99-0.414-2.574-2.178-2.574c-1.62,0-2.304,1.477-2.43,2.574H234.3z"/>
				<path i:knockout="Off" d="M245.316,411.165v10.531c0,0.773,0.018,1.655,0.072,2.25h-1.422l-0.072-1.513h-0.036
					c-0.486,0.972-1.53,1.71-2.952,1.71c-2.106,0-3.744-1.781-3.744-4.428c-0.018-2.916,1.8-4.68,3.906-4.68
					c1.35,0,2.25,0.629,2.628,1.313h0.036v-5.185H245.316z M243.732,418.78c0-0.217-0.018-0.469-0.072-0.685
					c-0.234-0.989-1.098-1.817-2.286-1.817c-1.638,0-2.61,1.439-2.61,3.348c0,1.781,0.882,3.24,2.574,3.24
					c1.062,0,2.034-0.721,2.322-1.891c0.054-0.216,0.072-0.432,0.072-0.684V418.78z"/>
				<path i:knockout="Off" d="M251.76,411.165h1.584v5.455h0.036c0.558-0.973,1.566-1.584,2.97-1.584c2.16,0,3.672,1.8,3.672,4.428
					c0,3.132-1.98,4.68-3.924,4.68c-1.26,0-2.25-0.486-2.916-1.638h-0.036l-0.09,1.44h-1.368c0.054-0.595,0.072-1.477,0.072-2.25
					V411.165z M253.344,420.454c0,0.197,0.018,0.396,0.054,0.576c0.306,1.098,1.242,1.854,2.376,1.854
					c1.674,0,2.646-1.35,2.646-3.348c0-1.764-0.9-3.258-2.592-3.258c-1.08,0-2.088,0.756-2.394,1.943
					c-0.054,0.198-0.09,0.414-0.09,0.666V420.454z"/>
				<path i:knockout="Off" d="M265.565,424.143c-2.34,0-4.176-1.728-4.176-4.482c0-2.916,1.926-4.625,4.32-4.625
					c2.502,0,4.194,1.817,4.194,4.464c0,3.239-2.25,4.644-4.32,4.644H265.565z M265.619,422.956c1.512,0,2.646-1.422,2.646-3.402
					c0-1.477-0.738-3.33-2.61-3.33c-1.854,0-2.664,1.729-2.664,3.385c0,1.907,1.08,3.348,2.61,3.348H265.619z"/>
				<path i:knockout="Off" d="M275.464,424.143c-2.34,0-4.176-1.728-4.176-4.482c0-2.916,1.926-4.625,4.32-4.625
					c2.502,0,4.194,1.817,4.194,4.464c0,3.239-2.25,4.644-4.32,4.644H275.464z M275.519,422.956c1.512,0,2.646-1.422,2.646-3.402
					c0-1.477-0.738-3.33-2.61-3.33c-1.854,0-2.664,1.729-2.664,3.385c0,1.907,1.08,3.348,2.61,3.348H275.519z"/>
				<path i:knockout="Off" d="M283.708,413.145v2.088h2.268v1.207h-2.268v4.697c0,1.08,0.306,1.691,1.188,1.691
					c0.432,0,0.684-0.035,0.918-0.107l0.072,1.206c-0.306,0.108-0.792,0.216-1.404,0.216c-0.738,0-1.332-0.252-1.71-0.666
					c-0.432-0.486-0.612-1.26-0.612-2.285v-4.752h-1.35v-1.207h1.35v-1.602L283.708,413.145z"/>
			</g>
			<g i:knockout="Off">
				<path i:knockout="Off" d="M387.019,286.091h-4.698v4.374h5.256v1.314h-6.84v-12.132h6.57v1.314h-4.986v3.834h4.698V286.091z"/>
				<path i:knockout="Off" d="M395.678,289.691c0,0.756,0.036,1.494,0.126,2.088h-1.422l-0.144-1.098h-0.054
					c-0.468,0.684-1.422,1.296-2.664,1.296c-1.764,0-2.664-1.242-2.664-2.502c0-2.106,1.872-3.258,5.238-3.24v-0.18
					c0-0.72-0.198-2.034-1.98-2.016c-0.828,0-1.674,0.234-2.286,0.648l-0.36-1.062c0.72-0.45,1.782-0.756,2.88-0.756
					c2.682,0,3.33,1.818,3.33,3.564V289.691z M394.129,287.333c-1.728-0.036-3.69,0.27-3.69,1.962c0,1.044,0.684,1.512,1.476,1.512
					c1.152,0,1.89-0.72,2.142-1.458c0.054-0.162,0.072-0.342,0.072-0.504V287.333z"/>
				<path i:knockout="Off" d="M398.233,285.785c0-1.026-0.018-1.908-0.072-2.718h1.386l0.072,1.71h0.054
					c0.396-1.17,1.368-1.908,2.43-1.908c0.162,0,0.288,0.018,0.432,0.054v1.476c-0.18-0.018-0.342-0.036-0.558-0.036
					c-1.116,0-1.908,0.846-2.124,2.016c-0.036,0.234-0.054,0.486-0.054,0.756v4.644h-1.584L398.233,285.785z"/>
				<path i:knockout="Off" d="M404.171,278.999h1.584v12.78h-1.584V278.999z"/>
				<path i:knockout="Off" d="M408.959,283.067l1.89,5.148c0.216,0.576,0.432,1.26,0.576,1.782h0.036
					c0.162-0.522,0.342-1.188,0.558-1.818l1.728-5.112h1.674l-2.376,6.21c-1.134,2.988-1.908,4.518-2.988,5.472
					c-0.792,0.666-1.548,0.936-1.944,1.008l-0.396-1.332c0.396-0.108,0.918-0.36,1.386-0.774c0.432-0.342,0.954-0.954,1.332-1.764
					c0.072-0.162,0.126-0.27,0.126-0.378c0-0.09-0.036-0.216-0.126-0.396l-3.204-8.046H408.959z"/>
				<path i:knockout="Off" d="M387.991,307.403c0,0.9,0.018,1.692,0.072,2.376h-1.404l-0.09-1.422h-0.036
					c-0.396,0.702-1.332,1.62-2.88,1.62c-1.368,0-3.006-0.774-3.006-3.816v-5.094h1.584v4.806c0,1.656,0.522,2.79,1.944,2.79
					c1.062,0,1.8-0.738,2.088-1.458c0.09-0.216,0.144-0.504,0.144-0.81v-5.328h1.584V307.403z"/>
				<path i:knockout="Off" d="M390.403,308.177c0.486,0.288,1.314,0.612,2.106,0.612c1.134,0,1.674-0.558,1.674-1.296
					c0-0.756-0.45-1.17-1.602-1.602c-1.584-0.576-2.322-1.422-2.322-2.466c0-1.404,1.152-2.556,3.006-2.556
					c0.882,0,1.656,0.234,2.124,0.54l-0.378,1.134c-0.342-0.198-0.972-0.504-1.782-0.504c-0.936,0-1.44,0.54-1.44,1.188
					c0,0.738,0.504,1.062,1.638,1.494c1.494,0.558,2.286,1.314,2.286,2.628c0,1.548-1.206,2.628-3.24,2.628
					c-0.954,0-1.836-0.252-2.448-0.612L390.403,308.177z"/>
				<path i:knockout="Off" d="M398.647,305.693c0.036,2.142,1.386,3.024,2.97,3.024c1.134,0,1.836-0.198,2.412-0.432l0.288,1.116
					c-0.558,0.252-1.53,0.558-2.916,0.558c-2.664,0-4.284-1.782-4.284-4.392c0-2.646,1.566-4.716,4.104-4.716
					c2.844,0,3.582,2.502,3.582,4.104c0,0.324-0.018,0.576-0.054,0.756L398.647,305.693z M403.273,304.559
					c0.018-0.99-0.414-2.574-2.178-2.574c-1.62,0-2.304,1.476-2.43,2.574H403.273z"/>
				<path i:knockout="Off" d="M406.783,303.785c0-1.026-0.018-1.908-0.072-2.718h1.386l0.072,1.71h0.054
					c0.396-1.17,1.368-1.908,2.43-1.908c0.162,0,0.288,0.018,0.432,0.054v1.476c-0.18-0.018-0.342-0.036-0.558-0.036
					c-1.116,0-1.908,0.846-2.124,2.016c-0.036,0.234-0.054,0.486-0.054,0.756v4.644h-1.584L406.783,303.785z"/>
				<path i:knockout="Off" d="M380.485,326.177c0.486,0.288,1.314,0.612,2.106,0.612c1.134,0,1.674-0.558,1.674-1.296
					c0-0.756-0.45-1.17-1.602-1.602c-1.584-0.576-2.322-1.422-2.322-2.466c0-1.404,1.152-2.556,3.006-2.556
					c0.882,0,1.656,0.234,2.124,0.54l-0.378,1.134c-0.342-0.198-0.972-0.504-1.782-0.504c-0.936,0-1.44,0.54-1.44,1.188
					c0,0.738,0.504,1.062,1.638,1.494c1.494,0.558,2.286,1.314,2.286,2.628c0,1.548-1.206,2.628-3.24,2.628
					c-0.954,0-1.836-0.252-2.448-0.612L380.485,326.177z"/>
				<path i:knockout="Off" d="M387.829,321.911c0-1.116-0.018-2.016-0.072-2.844h1.422l0.09,1.494h0.036
					c0.63-1.08,1.674-1.692,3.078-1.692c2.124,0,3.708,1.782,3.708,4.428c0,3.132-1.926,4.68-3.96,4.68
					c-1.17,0-2.16-0.504-2.682-1.368h-0.036v4.734h-1.584V321.911z M389.413,324.233c0,0.216,0.018,0.45,0.072,0.648
					c0.27,1.098,1.242,1.854,2.358,1.854c1.674,0,2.646-1.368,2.646-3.366c0-1.746-0.9-3.24-2.574-3.24
					c-1.08,0-2.106,0.756-2.412,1.944c-0.036,0.216-0.09,0.45-0.09,0.648V324.233z"/>
				<path i:knockout="Off" d="M404.209,325.691c0,0.756,0.036,1.494,0.126,2.088h-1.422l-0.144-1.098h-0.054
					c-0.468,0.684-1.422,1.296-2.664,1.296c-1.764,0-2.664-1.242-2.664-2.502c0-2.106,1.872-3.258,5.238-3.24v-0.18
					c0-0.72-0.198-2.034-1.98-2.016c-0.828,0-1.674,0.234-2.286,0.648l-0.36-1.062c0.72-0.45,1.782-0.756,2.88-0.756
					c2.682,0,3.33,1.818,3.33,3.564V325.691z M402.661,323.333c-1.728-0.036-3.69,0.27-3.69,1.962c0,1.044,0.684,1.512,1.476,1.512
					c1.152,0,1.89-0.72,2.142-1.458c0.054-0.162,0.072-0.342,0.072-0.504V323.333z"/>
				<path i:knockout="Off" d="M412.957,327.473c-0.414,0.198-1.332,0.504-2.502,0.504c-2.628,0-4.338-1.782-4.338-4.464
					s1.836-4.644,4.68-4.644c0.936,0,1.764,0.234,2.196,0.468l-0.36,1.206c-0.378-0.198-0.972-0.414-1.836-0.414
					c-1.998,0-3.078,1.494-3.078,3.312c0,2.016,1.296,3.258,3.024,3.258c0.9,0,1.494-0.216,1.944-0.414L412.957,327.473z"/>
				<path i:knockout="Off" d="M415.605,323.693c0.036,2.142,1.386,3.024,2.97,3.024c1.134,0,1.836-0.198,2.412-0.432l0.288,1.116
					c-0.558,0.252-1.53,0.558-2.916,0.558c-2.664,0-4.284-1.782-4.284-4.392c0-2.646,1.566-4.716,4.104-4.716
					c2.844,0,3.582,2.502,3.582,4.104c0,0.324-0.018,0.576-0.054,0.756L415.605,323.693z M420.231,322.559
					c0.018-0.99-0.414-2.574-2.178-2.574c-1.62,0-2.304,1.476-2.43,2.574H420.231z"/>
			</g>
			<g i:knockout="Off">
				<path i:knockout="Off" d="M270.674,90.642l-0.658-0.294l5.11-11.522l0.658,0.294L270.674,90.642z"/>
				<path i:knockout="Off" d="M281.762,88.808c-1.274,0-2.044-0.574-2.478-1.134v2.912h2.142v0.77h-4.06v-0.77h1.162v-7.252h-1.162
					v-0.77h1.918v0.98c0.504-0.658,1.344-1.162,2.548-1.162c1.078,0,2.114,0.532,2.674,1.694c0.21,0.434,0.322,0.952,0.322,1.47
					C284.828,87.436,283.47,88.808,281.762,88.808z M281.748,83.152c-1.512,0-2.422,1.148-2.422,2.422
					c0,1.47,1.092,2.464,2.394,2.464c1.148,0,2.338-0.924,2.338-2.478C284.058,84.748,283.582,83.152,281.748,83.152z"/>
				<path i:knockout="Off" d="M292.724,83.698c-0.098-0.476-0.42-0.56-0.77-0.56c-0.728,0-1.358,0.462-2.87,1.918v2.814h2.716v0.77
					h-5.236v-0.77h1.75v-4.536h-1.75v-0.77h2.52v1.624c0.91-0.77,1.792-1.806,3.122-1.806c0.434,0,0.798,0.126,1.022,0.476
					c0.154,0.238,0.21,0.49,0.252,0.77L292.724,83.698z"/>
				<path i:knockout="Off" d="M298.212,88.808c-2.184,0-3.556-1.344-3.556-3.206c0-2.002,1.568-3.22,3.542-3.22
					c2.688,0,3.486,1.988,3.486,3.22C301.684,87.436,300.34,88.808,298.212,88.808z M298.184,83.152
					c-1.736,0-2.758,1.162-2.758,2.464c0,1.134,0.882,2.422,2.772,2.422c1.596,0,2.716-1.022,2.716-2.422
					C300.914,84.86,300.438,83.152,298.184,83.152z"/>
				<path i:knockout="Off" d="M306.654,88.808c-1.764,0-3.318-1.218-3.318-3.29c0-1.274,0.966-3.136,3.388-3.136
					c0.812,0,1.484,0.238,2.128,0.672v-0.672h0.77v2.45h-0.77v-0.966c-0.602-0.504-1.344-0.7-2.142-0.7
					c-1.596,0-2.604,1.148-2.604,2.394c0,0.91,0.602,2.492,2.786,2.492c1.134,0,2.226-0.812,2.576-1.12l0.308,0.77
					C308.95,88.346,307.956,88.808,306.654,88.808z"/>
				<path i:knockout="Off" d="M312.673,90.642l-0.658-0.294l5.11-11.522l0.658,0.294L312.673,90.642z"/>
				<path i:knockout="Off" d="M326.226,83.334l-2.394,5.306h-0.896l-2.394-5.306h-1.204v-0.77h3.052v0.77h-1.036l2.03,4.55
					l2.03-4.55h-1.022v-0.77h2.94v0.77H326.226z"/>
				<path i:knockout="Off" d="M334.429,88.64v-3.99c0-0.546,0-1.064-0.462-1.386c-0.126-0.084-0.28-0.112-0.434-0.112
					c-0.77,0-1.26,0.91-1.316,1.05v3.668h0.728v0.77h-1.498v-4.27c0-0.14-0.042-1.204-0.966-1.204c-0.63,0-0.966,0.476-1.246,0.882
					v3.822h0.714v0.77h-1.484v-5.306h-0.728v-0.77h1.498v0.63c0.392-0.42,0.812-0.812,1.428-0.812c0.714,0,1.19,0.476,1.386,0.994
					c0.392-0.504,0.938-0.994,1.652-0.994c0.28,0,0.532,0.042,0.784,0.196c0.546,0.336,0.714,1.022,0.714,1.624v3.668h0.728v0.77
					H334.429z"/>
				<path i:knockout="Off" d="M340.253,88.808c-1.764,0-3.318-1.218-3.318-3.29c0-1.274,0.966-3.136,3.388-3.136
					c0.812,0,1.484,0.238,2.128,0.672v-0.672h0.77v2.45h-0.77v-0.966c-0.602-0.504-1.344-0.7-2.142-0.7
					c-1.596,0-2.604,1.148-2.604,2.394c0,0.91,0.602,2.492,2.786,2.492c1.134,0,2.226-0.812,2.576-1.12l0.308,0.77
					C342.549,88.346,341.555,88.808,340.253,88.808z"/>
				<path i:knockout="Off" d="M348.611,88.808c-2.184,0-3.556-1.344-3.556-3.206c0-2.002,1.568-3.22,3.542-3.22
					c2.688,0,3.486,1.988,3.486,3.22C352.083,87.436,350.739,88.808,348.611,88.808z M348.583,83.152
					c-1.736,0-2.758,1.162-2.758,2.464c0,1.134,0.882,2.422,2.772,2.422c1.596,0,2.716-1.022,2.716-2.422
					C351.312,84.86,350.836,83.152,348.583,83.152z"/>
				<path i:knockout="Off" d="M359.922,83.698c-0.098-0.476-0.42-0.56-0.77-0.56c-0.728,0-1.358,0.462-2.87,1.918v2.814h2.716v0.77
					h-5.236v-0.77h1.75v-4.536h-1.75v-0.77h2.52v1.624c0.91-0.77,1.792-1.806,3.122-1.806c0.434,0,0.798,0.126,1.022,0.476
					c0.154,0.238,0.21,0.49,0.252,0.77L359.922,83.698z"/>
				<path i:knockout="Off" d="M365.424,88.808c-2.45,0-3.416-1.554-3.416-3.206c0-1.932,1.484-3.22,3.346-3.22
					c2.254,0,3.192,1.554,3.192,3.318h-5.74v0.112c0,0.742,0.42,1.498,0.924,1.82c0.532,0.336,1.162,0.42,1.82,0.42
					c0.658,0,1.75-0.252,2.842-0.868l0.238,0.742C367.72,88.43,366.559,88.808,365.424,88.808z M365.354,83.166
					c-1.582,0-2.408,0.938-2.52,1.764h4.886C367.72,84.58,367.287,83.166,365.354,83.166z"/>
			</g>
			<g i:knockout="Off">
				<path i:knockout="Off" d="M434.171,114.375c-1.764,0-3.318-1.218-3.318-3.29c0-1.274,0.967-3.136,3.389-3.136
					c0.812,0,1.484,0.238,2.128,0.672v-0.672h0.771v2.45h-0.771v-0.966c-0.603-0.504-1.344-0.7-2.142-0.7
					c-1.596,0-2.604,1.148-2.604,2.394c0,0.91,0.603,2.492,2.786,2.492c1.134,0,2.227-0.812,2.576-1.12l0.308,0.77
					C436.468,113.914,435.474,114.375,434.171,114.375z"/>
				<path i:knockout="Off" d="M442.879,114.375c-1.274,0-2.044-0.574-2.478-1.134v2.912h2.142v0.77h-4.06v-0.77h1.162v-7.252h-1.162
					v-0.77h1.918v0.98c0.504-0.658,1.344-1.162,2.548-1.162c1.077,0,2.114,0.532,2.674,1.694c0.21,0.434,0.322,0.952,0.322,1.47
					C445.946,113.003,444.587,114.375,442.879,114.375z M442.866,108.72c-1.513,0-2.423,1.148-2.423,2.422
					c0,1.47,1.093,2.464,2.395,2.464c1.148,0,2.338-0.924,2.338-2.478C445.175,110.315,444.7,108.72,442.866,108.72z"/>
				<path i:knockout="Off" d="M450.089,116.014h-0.91l1.036-3.5h1.33L450.089,116.014z"/>
				<path i:knockout="Off" d="M467.631,114.208v-1.064c-0.546,0.812-1.456,1.232-2.45,1.232c-2.044,0-3.122-1.596-3.122-3.22
					c0-1.806,1.288-3.206,3.179-3.206c0.756,0,1.707,0.224,2.394,1.092V106.2h-1.904v-0.77h2.66v8.008h1.12v0.77H467.631z
					 M465.195,108.72c-1.399,0-2.365,1.148-2.365,2.436c0,1.218,0.826,2.45,2.365,2.45c1.4,0,2.366-1.022,2.366-2.506
					C467.561,110.133,467.085,108.72,465.195,108.72z"/>
				<path i:knockout="Off" d="M476.031,114.208v-1.064c-0.546,0.812-1.455,1.232-2.449,1.232c-2.045,0-3.123-1.596-3.123-3.22
					c0-1.806,1.289-3.206,3.179-3.206c0.756,0,1.708,0.224,2.394,1.092V106.2h-1.904v-0.77h2.66v8.008h1.121v0.77H476.031z
					 M473.595,108.72c-1.4,0-2.366,1.148-2.366,2.436c0,1.218,0.826,2.45,2.366,2.45c1.4,0,2.365-1.022,2.365-2.506
					C475.96,110.133,475.485,108.72,473.595,108.72z"/>
			</g>
			<g i:knockout="Off">
				<path i:knockout="Off" d="M411.811,167.308c-1.12,0-1.806-0.308-2.492-0.63v0.63h-0.77v-2.38h0.77v0.826
					c0.672,0.518,1.442,0.784,2.324,0.784c0.518,0,2.058-0.112,2.058-1.148c0-0.084-0.028-0.308-0.098-0.406
					c-0.378-0.532-1.106-0.434-1.722-0.49c-1.036-0.084-2.114-0.028-2.856-0.7c-0.266-0.238-0.364-0.616-0.364-0.966
					c0-1.204,1.008-1.946,2.548-1.946c0.784,0,1.54,0.182,2.17,0.56v-0.56h0.756v2.212h-0.756v-0.826
					c-0.588-0.378-1.358-0.616-2.128-0.616c-0.602,0-1.834,0.182-1.834,1.05c0,0.252,0.154,0.504,0.364,0.644
					c0.644,0.406,1.932,0.364,2.898,0.434c0.966,0.07,1.792,0.364,1.792,1.526C414.471,166.51,413.365,167.308,411.811,167.308z"/>
				<path i:knockout="Off" d="M419.973,167.308c-1.764,0-3.318-1.218-3.318-3.29c0-1.274,0.966-3.136,3.388-3.136
					c0.812,0,1.484,0.238,2.128,0.672v-0.672h0.77v2.45h-0.77v-0.966c-0.602-0.504-1.344-0.7-2.142-0.7
					c-1.596,0-2.604,1.148-2.604,2.394c0,0.91,0.602,2.492,2.786,2.492c1.134,0,2.226-0.812,2.576-1.12l0.308,0.77
					C422.269,166.846,421.275,167.308,419.973,167.308z"/>
				<path i:knockout="Off" d="M428.681,167.308c-1.274,0-2.044-0.574-2.478-1.134v2.912h2.142v0.77h-4.06v-0.77h1.162v-7.252h-1.162
					v-0.77h1.918v0.98c0.504-0.658,1.344-1.162,2.548-1.162c1.078,0,2.114,0.532,2.674,1.694c0.209,0.434,0.322,0.952,0.322,1.47
					C431.748,165.936,430.388,167.308,428.681,167.308z M428.667,161.652c-1.512,0-2.422,1.148-2.422,2.422
					c0,1.47,1.092,2.464,2.394,2.464c1.148,0,2.338-0.924,2.338-2.478C430.977,163.248,430.501,161.652,428.667,161.652z"/>
				<path i:knockout="Off" d="M435.89,168.946h-0.909l1.036-3.5h1.33L435.89,168.946z"/>
				<path i:knockout="Off" d="M454.203,159.314c-0.504-0.084-1.274-0.168-1.807-0.168c-1.596,0-1.609,0.546-1.609,1.19v0.728h3.023
					v0.77h-3.023v4.536h3.023v0.77h-5.291v-0.77h1.483v-4.536h-1.483v-0.77h1.483v-0.728c0-0.266,0-0.574,0.056-0.784
					c0.252-1.162,1.793-1.176,2.311-1.176c0.56,0,1.582,0.112,2.044,0.182L454.203,159.314z"/>
				<path i:knockout="Off" d="M459.789,167.308c-0.729,0-2.24-0.252-2.24-1.834v-3.64h-0.994v-0.77h0.994v-1.806h0.756v1.806h3.612
					v0.77h-3.612v3.304c0,0.434,0.112,0.938,0.518,1.148c0.379,0.196,0.742,0.252,1.121,0.252c0.951,0,2.002-0.49,2.729-0.77
					l0.084,0.756C461.875,166.902,460.824,167.308,459.789,167.308z"/>
				<path i:knockout="Off" d="M468.58,167.308c-1.273,0-2.043-0.574-2.478-1.134v2.912h2.142v0.77h-4.06v-0.77h1.162v-7.252h-1.162
					v-0.77h1.918v0.98c0.505-0.658,1.345-1.162,2.548-1.162c1.078,0,2.114,0.532,2.674,1.694c0.211,0.434,0.322,0.952,0.322,1.47
					C471.646,165.936,470.289,167.308,468.58,167.308z M468.566,161.652c-1.512,0-2.422,1.148-2.422,2.422
					c0,1.47,1.092,2.464,2.395,2.464c1.147,0,2.338-0.924,2.338-2.478C470.876,163.248,470.4,161.652,468.566,161.652z"/>
			</g>
			<g i:knockout="Off">
				<path i:knockout="Off" d="M371.974,343.296c-0.742,1.386-1.302,2.87-1.302,4.578c0,2.016,1.008,3.948,1.666,5.124h-0.742
					c-0.812-1.26-1.694-3.304-1.694-5.362c0-1.414,0.728-3.542,1.708-5.068h0.756L371.974,343.296z"/>
				<path i:knockout="Off" d="M375.726,351.64v-0.77h2.464v-4.536h-2.128v-0.77h2.898v5.306h2.422v0.77H375.726z M377.966,344.206
					v-1.722h0.994v1.722H377.966z"/>
				<path i:knockout="Off" d="M387.71,351.64v-0.77h1.148v-3.57c0-0.966-0.784-1.148-1.386-1.148c-0.854,0-1.806,0.504-2.394,1.148
					v3.57h1.162v0.77h-3.08v-0.77h1.162v-4.522h-1.162v-0.784h1.918v0.882c0.714-0.644,1.652-1.064,2.618-1.064
					c0.672,0,1.106,0.182,1.4,0.42c0.42,0.35,0.518,0.966,0.518,1.484v3.584h1.148v0.77H387.71z"/>
				<path i:knockout="Off" d="M392.526,351.64v-0.77h2.464v-4.536h-2.128v-0.77h2.898v5.306h2.422v0.77H392.526z M394.766,344.206
					v-1.722h0.994v1.722H394.766z"/>
				<path i:knockout="Off" d="M403.74,351.808c-0.728,0-2.24-0.252-2.24-1.834v-3.64h-0.994v-0.77h0.994v-1.806h0.756v1.806h3.612
					v0.77h-3.612v3.304c0,0.434,0.112,0.938,0.518,1.148c0.378,0.196,0.742,0.252,1.12,0.252c0.952,0,2.002-0.49,2.73-0.77
					l0.084,0.756C405.826,351.402,404.775,351.808,403.74,351.808z"/>
				<path i:knockout="Off" d="M415.093,346.698c-0.098-0.476-0.42-0.56-0.77-0.56c-0.728,0-1.358,0.462-2.87,1.918v2.814h2.716v0.77
					h-5.236v-0.77h1.75v-4.536h-1.75v-0.77h2.52v1.624c0.91-0.77,1.792-1.806,3.122-1.806c0.434,0,0.798,0.126,1.022,0.476
					c0.154,0.238,0.21,0.49,0.252,0.77L415.093,346.698z"/>
				<path i:knockout="Off" d="M422.583,351.64v-1.064c-0.546,0.812-1.456,1.232-2.45,1.232c-2.044,0-3.122-1.596-3.122-3.22
					c0-1.806,1.288-3.206,3.178-3.206c0.756,0,1.708,0.224,2.394,1.092v-2.842h-1.904v-0.77h2.66v8.008h1.12v0.77H422.583z
					 M420.147,346.152c-1.4,0-2.366,1.148-2.366,2.436c0,1.218,0.826,2.45,2.366,2.45c1.4,0,2.366-1.022,2.366-2.506
					C422.513,347.566,422.037,346.152,420.147,346.152z"/>
				<path i:knockout="Off" d="M427.427,352.998h-0.742c0.658-1.176,1.666-3.108,1.666-5.124c0-1.708-0.56-3.192-1.302-4.578
					l-0.392-0.728h0.756c0.98,1.526,1.708,3.654,1.708,5.068C429.121,349.694,428.239,351.738,427.427,352.998z"/>
			</g>
			<g>
				<path i:knockout="Off" fill="#CCCCCC" d="M495.114,38.336c0,18.706-15.165,28.202-33.871,28.202s-33.871-9.496-33.871-28.202
					s15.165-28.202,33.871-28.202S495.114,19.63,495.114,38.336z"/>
				<linearGradient id="XMLID_9_" gradientUnits="userSpaceOnUse" x1="314.8071" y1="34.4697" x2="517.8101" y2="34.4697">
					<stop  offset="0" style="stop-color:#169133"/>
					<stop  offset="1" style="stop-color:#FFFFFF"/>
					<a:midPointStop  offset="0" style="stop-color:#169133"/>
					<a:midPointStop  offset="0.5" style="stop-color:#169133"/>
					<a:midPointStop  offset="1" style="stop-color:#FFFFFF"/>
				</linearGradient>
				<path i:knockout="Off" fill="url(#XMLID_9_)" stroke="#000000" d="M488.681,34.47c0,18.706-15.165,28.202-33.871,28.202
					s-33.871-9.496-33.871-28.202S436.104,6.268,454.81,6.268S488.681,15.764,488.681,34.47z"/>
			</g>
			<g i:knockout="Off">
				<path i:knockout="Off" d="M447.636,32.875v6.936c0,1.853-1.326,2.805-3.451,2.805c-1.411,0-2.855-0.306-3.74-0.51l0.188-0.918
					c0.9,0.204,2.022,0.51,3.179,0.51c2.04,0,2.907-0.51,2.907-2.091v-2.125c-0.697,0.833-1.973,1.241-3.094,1.241
					c-2.687,0-3.944-1.819-3.944-3.468c0-1.615,1.36-3.536,3.961-3.536c1.36,0,2.499,0.561,3.077,1.207V31.94h1.972v0.935H447.636z
					 M443.675,32.654c-1.633,0-3.061,1.054-3.061,2.601c0,1.377,1.292,2.533,3.026,2.533c1.7,0,3.026-1.105,3.026-2.567
					C446.667,34.286,446.055,32.654,443.675,32.654z"/>
				<path i:knockout="Off" d="M456.917,39.318v-1.292c-0.662,0.986-1.768,1.496-2.975,1.496c-2.482,0-3.791-1.938-3.791-3.91
					c0-2.193,1.564-3.893,3.859-3.893c0.918,0,2.074,0.272,2.906,1.326v-3.451h-2.312v-0.935h3.229v9.724h1.36v0.935H456.917z
					 M453.959,32.654c-1.7,0-2.872,1.394-2.872,2.958c0,1.479,1.002,2.975,2.872,2.975c1.7,0,2.873-1.241,2.873-3.043
					C456.833,34.371,456.255,32.654,453.959,32.654z"/>
				<path i:knockout="Off" d="M466.132,39.522c-2.125,0-2.84-1.105-3.061-1.377v1.173h-2.328v-0.935h1.41v-8.789h-1.41v-0.935h2.328
					v4.539c0.289-0.425,1.258-1.479,3.061-1.479c1.734,0,3.654,1.36,3.654,3.91C469.787,37.482,468.359,39.522,466.132,39.522z
					 M466.03,32.654c-1.444,0-2.907,1.139-2.907,2.924c0,2.091,1.564,3.009,2.907,3.009c1.445,0,2.822-1.224,2.822-2.958
					C468.852,34.252,467.968,32.654,466.03,32.654z"/>
			</g>
			<g i:knockout="Off">
				<path i:knockout="Off" d="M35.682,165.49h6.534v1.314h-4.95v4.032h4.572v1.296h-4.572v5.49h-1.584V165.49z"/>
				<path i:knockout="Off" d="M44.702,167.309c-0.594,0-0.99-0.468-0.99-1.026c0-0.558,0.414-1.008,1.026-1.008
					s1.008,0.45,1.008,1.008c0,0.558-0.396,1.026-1.026,1.026H44.702z M43.946,177.623v-8.712h1.584v8.712H43.946z"/>
				<path i:knockout="Off" d="M48.176,171.628c0-1.026-0.018-1.908-0.072-2.718h1.386l0.072,1.71h0.054
					c0.396-1.17,1.368-1.908,2.43-1.908c0.162,0,0.288,0.018,0.432,0.054v1.476c-0.18-0.018-0.342-0.036-0.558-0.036
					c-1.116,0-1.908,0.846-2.124,2.016c-0.036,0.234-0.054,0.486-0.054,0.756v4.644h-1.584L48.176,171.628z"/>
				<path i:knockout="Off" d="M53.828,176.021c0.486,0.288,1.314,0.612,2.106,0.612c1.134,0,1.674-0.558,1.674-1.296
					c0-0.756-0.45-1.17-1.602-1.602c-1.584-0.576-2.322-1.422-2.322-2.466c0-1.404,1.152-2.556,3.006-2.556
					c0.882,0,1.656,0.234,2.124,0.54l-0.378,1.134c-0.342-0.198-0.972-0.504-1.782-0.504c-0.936,0-1.44,0.54-1.44,1.188
					c0,0.738,0.504,1.062,1.638,1.494c1.494,0.558,2.286,1.314,2.286,2.628c0,1.548-1.206,2.628-3.24,2.628
					c-0.954,0-1.836-0.252-2.448-0.612L53.828,176.021z"/>
				<path i:knockout="Off" d="M63.08,166.822v2.088h2.268v1.206H63.08v4.698c0,1.08,0.306,1.692,1.188,1.692
					c0.432,0,0.684-0.036,0.918-0.108l0.072,1.206c-0.306,0.108-0.792,0.216-1.404,0.216c-0.738,0-1.332-0.252-1.71-0.666
					c-0.432-0.486-0.612-1.26-0.612-2.286v-4.752h-1.35v-1.206h1.35v-1.602L63.08,166.822z"/>
				<path i:knockout="Off" d="M72.53,172.907h0.036c0.216-0.306,0.504-0.702,0.756-0.99l2.574-3.006h1.89l-3.366,3.582l3.834,5.13
					h-1.926l-2.988-4.194l-0.81,0.918v3.276h-1.584v-12.78h1.584V172.907z"/>
				<path i:knockout="Off" d="M80.411,173.537c0.036,2.142,1.386,3.024,2.97,3.024c1.134,0,1.836-0.198,2.412-0.432l0.288,1.116
					c-0.558,0.252-1.53,0.558-2.916,0.558c-2.664,0-4.284-1.782-4.284-4.392c0-2.646,1.566-4.716,4.104-4.716
					c2.844,0,3.582,2.502,3.582,4.104c0,0.324-0.018,0.576-0.054,0.756L80.411,173.537z M85.037,172.402
					c0.018-0.99-0.414-2.574-2.178-2.574c-1.62,0-2.304,1.476-2.43,2.574H85.037z"/>
				<path i:knockout="Off" d="M88.546,171.628c0-1.026-0.018-1.908-0.072-2.718h1.386l0.072,1.71h0.054
					c0.396-1.17,1.368-1.908,2.43-1.908c0.162,0,0.288,0.018,0.432,0.054v1.476c-0.18-0.018-0.342-0.036-0.558-0.036
					c-1.116,0-1.908,0.846-2.124,2.016c-0.036,0.234-0.054,0.486-0.054,0.756v4.644h-1.584L88.546,171.628z"/>
				<path i:knockout="Off" d="M94.485,171.269c0-0.918-0.018-1.638-0.072-2.358h1.404l0.09,1.422h0.036
					c0.432-0.81,1.44-1.62,2.88-1.62c1.206,0,3.078,0.72,3.078,3.708v5.202h-1.584v-5.022c0-1.404-0.522-2.592-2.016-2.592
					c-1.026,0-1.836,0.738-2.124,1.62c-0.072,0.198-0.108,0.486-0.108,0.738v5.256h-1.584V171.269z"/>
				<path i:knockout="Off" d="M105.375,173.537c0.036,2.142,1.386,3.024,2.97,3.024c1.134,0,1.836-0.198,2.412-0.432l0.288,1.116
					c-0.558,0.252-1.53,0.558-2.916,0.558c-2.664,0-4.284-1.782-4.284-4.392c0-2.646,1.566-4.716,4.104-4.716
					c2.844,0,3.582,2.502,3.582,4.104c0,0.324-0.018,0.576-0.054,0.756L105.375,173.537z M110,172.402
					c0.018-0.99-0.414-2.574-2.178-2.574c-1.62,0-2.304,1.476-2.43,2.574H110z"/>
				<path i:knockout="Off" d="M113.492,164.842h1.584v12.78h-1.584V164.842z"/>
			</g>
			<path i:knockout="Off" fill="#CCCCCC" d="M144.27,397.44c0,3.119-2.551,5.669-5.669,5.669H26.1c-3.118,0-5.669-2.551-5.669-5.669
				v-65.282c0-3.118,2.551-5.669,5.669-5.669h112.501c3.118,0,5.669,2.551,5.669,5.669V397.44z"/>
			<linearGradient id="XMLID_10_" gradientUnits="userSpaceOnUse" x1="-197.7153" y1="359.7993" x2="177.7903" y2="359.7993">
				<stop  offset="0" style="stop-color:#169133"/>
				<stop  offset="1" style="stop-color:#FFFFFF"/>
				<a:midPointStop  offset="0" style="stop-color:#169133"/>
				<a:midPointStop  offset="0.5" style="stop-color:#169133"/>
				<a:midPointStop  offset="1" style="stop-color:#FFFFFF"/>
			</linearGradient>
			<path i:knockout="Off" fill="url(#XMLID_10_)" stroke="#000000" d="M137.27,392.44c0,3.119-2.551,5.669-5.669,5.669H19.1
				c-3.118,0-5.669-2.551-5.669-5.669v-65.281c0-3.118,2.551-5.669,5.669-5.669h112.501c3.118,0,5.669,2.551,5.669,5.669V392.44z"/>
			<g i:knockout="Off">
				<path i:knockout="Off" d="M27.654,345.533c0.702,0.45,1.71,0.792,2.79,0.792c1.602,0,2.538-0.828,2.538-2.07
					c0-1.116-0.648-1.782-2.286-2.394c-1.98-0.72-3.204-1.764-3.204-3.456c0-1.89,1.566-3.294,3.924-3.294
					c1.224,0,2.142,0.288,2.664,0.594l-0.432,1.278c-0.378-0.234-1.188-0.576-2.286-0.576c-1.656,0-2.286,0.99-2.286,1.818
					c0,1.134,0.738,1.692,2.412,2.34c2.052,0.81,3.078,1.782,3.078,3.564c0,1.872-1.368,3.51-4.23,3.51
					c-1.17,0-2.448-0.36-3.096-0.792L27.654,345.533z"/>
				<path i:knockout="Off" d="M37.107,338.729l1.89,5.148c0.216,0.576,0.432,1.26,0.576,1.782h0.036
					c0.162-0.522,0.342-1.188,0.558-1.818l1.728-5.112h1.674l-2.376,6.21c-1.134,2.988-1.908,4.518-2.988,5.472
					c-0.792,0.666-1.548,0.936-1.944,1.008l-0.396-1.332c0.396-0.108,0.918-0.36,1.386-0.774c0.432-0.342,0.954-0.954,1.332-1.764
					c0.072-0.162,0.126-0.27,0.126-0.378c0-0.09-0.036-0.216-0.126-0.396l-3.204-8.046H37.107z"/>
				<path i:knockout="Off" d="M44.723,345.839c0.486,0.288,1.314,0.612,2.106,0.612c1.134,0,1.674-0.558,1.674-1.296
					c0-0.756-0.45-1.17-1.602-1.602c-1.584-0.576-2.322-1.422-2.322-2.466c0-1.404,1.152-2.556,3.006-2.556
					c0.882,0,1.656,0.234,2.124,0.54l-0.378,1.134c-0.342-0.198-0.972-0.504-1.782-0.504c-0.936,0-1.44,0.54-1.44,1.188
					c0,0.738,0.504,1.062,1.638,1.494c1.494,0.558,2.286,1.314,2.286,2.628c0,1.548-1.206,2.628-3.24,2.628
					c-0.954,0-1.836-0.252-2.448-0.612L44.723,345.839z"/>
				<path i:knockout="Off" d="M53.975,336.641v2.088h2.268v1.206h-2.268v4.698c0,1.08,0.306,1.692,1.188,1.692
					c0.432,0,0.684-0.036,0.918-0.108l0.072,1.206c-0.306,0.108-0.792,0.216-1.404,0.216c-0.738,0-1.332-0.252-1.71-0.666
					c-0.432-0.486-0.612-1.26-0.612-2.286v-4.752h-1.35v-1.206h1.35v-1.602L53.975,336.641z"/>
				<path i:knockout="Off" d="M58.819,343.355c0.036,2.142,1.386,3.024,2.97,3.024c1.134,0,1.836-0.198,2.412-0.432l0.288,1.116
					c-0.558,0.252-1.53,0.558-2.916,0.558c-2.664,0-4.284-1.782-4.284-4.392c0-2.646,1.566-4.716,4.104-4.716
					c2.844,0,3.582,2.502,3.582,4.104c0,0.324-0.018,0.576-0.054,0.756L58.819,343.355z M63.445,342.221
					c0.018-0.99-0.414-2.574-2.178-2.574c-1.62,0-2.304,1.476-2.43,2.574H63.445z"/>
				<path i:knockout="Off" d="M66.937,341.087c0-0.918-0.036-1.638-0.072-2.358h1.386l0.072,1.404h0.054
					c0.486-0.828,1.296-1.602,2.754-1.602c1.17,0,2.07,0.72,2.448,1.746h0.036c0.27-0.504,0.63-0.864,0.99-1.134
					c0.522-0.396,1.08-0.612,1.908-0.612c1.17,0,2.88,0.756,2.88,3.78v5.13h-1.548v-4.932c0-1.692-0.63-2.682-1.89-2.682
					c-0.918,0-1.602,0.666-1.89,1.422c-0.072,0.234-0.126,0.522-0.126,0.792v5.4h-1.548v-5.22c0-1.404-0.612-2.394-1.818-2.394
					c-0.972,0-1.71,0.792-1.962,1.584c-0.09,0.234-0.126,0.504-0.126,0.774v5.256h-1.548V341.087z"/>
				<path i:knockout="Off" d="M91.975,347.135c-0.414,0.198-1.332,0.504-2.502,0.504c-2.628,0-4.338-1.782-4.338-4.464
					s1.836-4.644,4.68-4.644c0.936,0,1.764,0.234,2.196,0.468l-0.36,1.206c-0.378-0.198-0.972-0.414-1.836-0.414
					c-1.998,0-3.078,1.494-3.078,3.312c0,2.016,1.296,3.258,3.024,3.258c0.9,0,1.494-0.216,1.944-0.414L91.975,347.135z"/>
				<path i:knockout="Off" d="M93.847,341.447c0-1.026-0.018-1.908-0.072-2.718h1.386l0.072,1.71h0.054
					c0.396-1.17,1.368-1.908,2.43-1.908c0.162,0,0.288,0.018,0.432,0.054v1.476c-0.18-0.018-0.342-0.036-0.558-0.036
					c-1.116,0-1.908,0.846-2.124,2.016c-0.036,0.234-0.054,0.486-0.054,0.756v4.644h-1.584L93.847,341.447z"/>
				<path i:knockout="Off" d="M105.748,345.353c0,0.756,0.036,1.494,0.126,2.088h-1.422l-0.144-1.098h-0.054
					c-0.468,0.684-1.422,1.296-2.664,1.296c-1.764,0-2.664-1.242-2.664-2.502c0-2.106,1.872-3.258,5.238-3.24v-0.18
					c0-0.72-0.198-2.034-1.98-2.016c-0.828,0-1.674,0.234-2.286,0.648l-0.36-1.062c0.72-0.45,1.782-0.756,2.88-0.756
					c2.682,0,3.33,1.818,3.33,3.564V345.353z M104.199,342.995c-1.728-0.036-3.69,0.27-3.69,1.962c0,1.044,0.684,1.512,1.476,1.512
					c1.152,0,1.89-0.72,2.142-1.458c0.054-0.162,0.072-0.342,0.072-0.504V342.995z"/>
				<path i:knockout="Off" d="M108.069,345.839c0.486,0.288,1.314,0.612,2.106,0.612c1.134,0,1.674-0.558,1.674-1.296
					c0-0.756-0.45-1.17-1.602-1.602c-1.584-0.576-2.322-1.422-2.322-2.466c0-1.404,1.152-2.556,3.006-2.556
					c0.882,0,1.656,0.234,2.124,0.54l-0.378,1.134c-0.342-0.198-0.972-0.504-1.782-0.504c-0.936,0-1.44,0.54-1.44,1.188
					c0,0.738,0.504,1.062,1.638,1.494c1.494,0.558,2.286,1.314,2.286,2.628c0,1.548-1.206,2.628-3.24,2.628
					c-0.954,0-1.836-0.252-2.448-0.612L108.069,345.839z"/>
				<path i:knockout="Off" d="M115.413,334.661h1.584v5.436h0.036c0.252-0.45,0.648-0.864,1.134-1.116
					c0.468-0.288,1.026-0.45,1.62-0.45c1.17,0,3.042,0.72,3.042,3.726v5.184h-1.584v-5.004c0-1.422-0.522-2.592-2.016-2.592
					c-1.026,0-1.818,0.72-2.124,1.584c-0.09,0.216-0.108,0.45-0.108,0.756v5.256h-1.584V334.661z"/>
				<path i:knockout="Off" d="M51.432,366.409c-1.274,0-2.044-0.574-2.478-1.134v2.912h2.142v0.77h-4.06v-0.77h1.162v-7.252h-1.162
					v-0.77h1.918v0.98c0.504-0.658,1.344-1.162,2.548-1.162c1.078,0,2.114,0.532,2.674,1.694c0.21,0.434,0.322,0.952,0.322,1.47
					C54.498,365.037,53.14,366.409,51.432,366.409z M51.418,360.753c-1.512,0-2.422,1.148-2.422,2.422
					c0,1.47,1.092,2.464,2.394,2.464c1.148,0,2.338-0.924,2.338-2.478C53.728,362.349,53.252,360.753,51.418,360.753z"/>
				<path i:knockout="Off" d="M61.036,366.241v-1.176c-0.77,0.742-1.736,1.344-2.8,1.344c-1.428,0-2.226-0.98-2.226-1.89
					c0-0.826,0.742-2.044,3.038-2.044c0.672,0,1.358,0.098,1.974,0.196v-0.434c0-0.462-0.098-0.952-0.462-1.176
					c-0.406-0.252-0.868-0.294-1.344-0.294c-0.952,0-1.96,0.378-2.394,0.588l-0.196-0.756c0.812-0.336,1.778-0.616,2.73-0.616
					c1.19,0,1.89,0.42,2.184,0.966c0.21,0.378,0.238,0.77,0.238,1.148v3.374h1.148v0.77H61.036z M61.022,363.441
					c-0.588-0.098-1.176-0.182-1.792-0.182c-0.658,0-1.414,0.028-1.932,0.392c-0.28,0.196-0.504,0.504-0.504,0.882
					c0,0.532,0.602,1.106,1.456,1.106c1.134,0,2.072-0.658,2.772-1.498V363.441z"/>
				<path i:knockout="Off" d="M68.61,366.241v-0.77h1.148v-3.57c0-0.966-0.784-1.148-1.386-1.148c-0.854,0-1.806,0.504-2.394,1.148
					v3.57h1.162v0.77h-3.08v-0.77h1.162v-4.522H64.06v-0.784h1.918v0.882c0.714-0.644,1.652-1.064,2.618-1.064
					c0.672,0,1.106,0.182,1.4,0.42c0.42,0.35,0.518,0.966,0.518,1.484v3.584h1.148v0.77H68.61z"/>
				<path i:knockout="Off" d="M73.426,366.241v-0.77h2.464v-4.536h-2.128v-0.77h2.898v5.306h2.422v0.77H73.426z M75.666,358.807
					v-1.722h0.994v1.722H75.666z"/>
				<path i:knockout="Off" d="M84.724,366.409c-1.764,0-3.318-1.218-3.318-3.29c0-1.274,0.966-3.136,3.388-3.136
					c0.812,0,1.484,0.238,2.128,0.672v-0.672h0.77v2.45h-0.77v-0.966c-0.602-0.504-1.344-0.7-2.142-0.7
					c-1.596,0-2.604,1.148-2.604,2.394c0,0.91,0.602,2.492,2.786,2.492c1.134,0,2.226-0.812,2.576-1.12l0.308,0.77
					C87.02,365.947,86.025,366.409,84.724,366.409z"/>
				<path i:knockout="Off" d="M94.874,357.897c-0.742,1.386-1.302,2.87-1.302,4.578c0,2.016,1.008,3.948,1.666,5.124h-0.742
					c-0.812-1.26-1.694-3.304-1.694-5.362c0-1.414,0.728-3.542,1.708-5.068h0.756L94.874,357.897z"/>
				<path i:knockout="Off" d="M99.927,367.599h-0.742c0.658-1.176,1.666-3.108,1.666-5.124c0-1.708-0.56-3.192-1.302-4.578
					l-0.392-0.728h0.756c0.98,1.526,1.708,3.654,1.708,5.068C101.621,364.295,100.739,366.339,99.927,367.599z"/>
				<path i:knockout="Off" d="M107.641,368.047h-0.91l1.036-3.5h1.33L107.641,368.047z"/>
				<path i:knockout="Off" d="M42.833,384.085l-0.91,2.756h-1.17l2.977-8.762h1.365l2.99,8.762h-1.209l-0.936-2.756H42.833z
					 M45.706,383.201l-0.871-2.522c-0.182-0.572-0.312-1.092-0.442-1.599h-0.039c-0.117,0.507-0.26,1.053-0.429,1.586l-0.858,2.535
					H45.706z"/>
				<path i:knockout="Off" d="M49.295,377.611h1.144v9.23h-1.144V377.611z"/>
				<path i:knockout="Off" d="M53.715,379.041v1.508h1.638v0.871h-1.638v3.393c0,0.78,0.221,1.222,0.858,1.222
					c0.312,0,0.494-0.026,0.663-0.078l0.052,0.871c-0.221,0.078-0.572,0.156-1.014,0.156c-0.533,0-0.962-0.182-1.235-0.481
					c-0.312-0.351-0.442-0.91-0.442-1.651v-3.432h-0.975v-0.871h0.975v-1.157L53.715,379.041z"/>
				<path i:knockout="Off" d="M59.981,379.925v3.055h2.938v0.78h-2.938v3.081h-0.832v-3.081h-2.938v-0.78h2.938v-3.055H59.981z"/>
				<path i:knockout="Off" d="M64.284,385.463c0.507,0.325,1.235,0.572,2.015,0.572c1.157,0,1.833-0.598,1.833-1.495
					c0-0.806-0.468-1.287-1.651-1.729c-1.43-0.52-2.314-1.274-2.314-2.496c0-1.365,1.131-2.379,2.834-2.379
					c0.884,0,1.547,0.208,1.924,0.429l-0.312,0.923c-0.273-0.169-0.858-0.416-1.651-0.416c-1.196,0-1.651,0.715-1.651,1.313
					c0,0.819,0.533,1.222,1.742,1.69c1.482,0.585,2.223,1.287,2.223,2.574c0,1.352-0.988,2.535-3.055,2.535
					c-0.845,0-1.768-0.26-2.236-0.572L64.284,385.463z"/>
				<path i:knockout="Off" d="M71.111,380.549l1.365,3.718c0.156,0.416,0.312,0.91,0.416,1.287h0.026
					c0.117-0.377,0.247-0.858,0.403-1.313l1.248-3.692h1.209l-1.716,4.485c-0.819,2.158-1.378,3.263-2.158,3.952
					c-0.572,0.481-1.118,0.676-1.404,0.728l-0.286-0.962c0.286-0.078,0.663-0.26,1.001-0.559c0.312-0.247,0.689-0.689,0.962-1.274
					c0.052-0.117,0.091-0.195,0.091-0.273c0-0.065-0.026-0.156-0.091-0.286l-2.314-5.811H71.111z"/>
				<path i:knockout="Off" d="M76.611,385.684c0.351,0.208,0.949,0.442,1.521,0.442c0.819,0,1.209-0.403,1.209-0.936
					c0-0.546-0.325-0.845-1.157-1.157c-1.144-0.416-1.677-1.027-1.677-1.781c0-1.014,0.832-1.846,2.171-1.846
					c0.637,0,1.196,0.169,1.534,0.39l-0.273,0.819c-0.247-0.143-0.702-0.364-1.287-0.364c-0.676,0-1.04,0.39-1.04,0.858
					c0,0.533,0.364,0.767,1.183,1.079c1.079,0.403,1.651,0.949,1.651,1.898c0,1.118-0.871,1.898-2.34,1.898
					c-0.689,0-1.326-0.182-1.768-0.442L76.611,385.684z"/>
				<path i:knockout="Off" d="M81.954,378.209c0.572-0.117,1.404-0.195,2.171-0.195c1.209,0,2.002,0.234,2.548,0.728
					c0.429,0.377,0.689,0.975,0.689,1.664c0,1.144-0.741,1.911-1.651,2.223v0.039c0.663,0.234,1.066,0.858,1.287,1.768
					c0.286,1.222,0.494,2.067,0.663,2.405h-1.17c-0.143-0.247-0.338-1.001-0.572-2.093c-0.26-1.209-0.741-1.664-1.768-1.703h-1.066
					v3.796h-1.131V378.209z M83.085,382.187h1.157c1.209,0,1.976-0.663,1.976-1.664c0-1.131-0.819-1.625-2.015-1.625
					c-0.546,0-0.923,0.052-1.118,0.104V382.187z"/>
				<path i:knockout="Off" d="M93.199,385.879h-0.026c-0.338,0.611-1.04,1.105-2.054,1.105c-1.469,0-2.665-1.261-2.665-3.185
					c0-2.353,1.521-3.393,2.847-3.393c0.975,0,1.625,0.481,1.937,1.092h0.026l0.039-0.949h1.092
					c-0.039,0.52-0.052,1.066-0.052,1.729v7.137h-1.144V385.879z M93.199,383.097c0-0.169-0.013-0.338-0.052-0.481
					c-0.182-0.702-0.78-1.3-1.638-1.3c-1.183,0-1.898,1.001-1.898,2.418c0,1.261,0.598,2.34,1.859,2.34
					c0.741,0,1.378-0.455,1.638-1.248c0.052-0.156,0.091-0.377,0.091-0.546V383.097z"/>
				<path i:knockout="Off" d="M99.569,379.925v3.055h2.938v0.78h-2.938v3.081h-0.832v-3.081h-2.938v-0.78h2.938v-3.055H99.569z"/>
				<path i:knockout="Off" d="M110.125,386.568c-0.403,0.208-1.248,0.416-2.314,0.416c-2.47,0-4.316-1.56-4.316-4.446
					c0-2.756,1.859-4.602,4.576-4.602c1.079,0,1.781,0.234,2.08,0.39l-0.286,0.923c-0.416-0.208-1.027-0.364-1.755-0.364
					c-2.054,0-3.419,1.313-3.419,3.614c0,2.158,1.235,3.523,3.354,3.523c0.702,0,1.404-0.143,1.859-0.364L110.125,386.568z"/>
			</g>
			<path i:knockout="Off" fill="#CCCCCC" d="M651,145.235c0,3.119-2.551,5.669-5.669,5.669H532.831
				c-3.118,0-5.669-2.551-5.669-5.669v-36.935c0-3.118,2.551-5.669,5.669-5.669h112.501c3.118,0,5.669,2.551,5.669,5.669V145.235z"
				/>
			<linearGradient id="XMLID_11_" gradientUnits="userSpaceOnUse" x1="309.0161" y1="121.7681" x2="684.5203" y2="121.7681">
				<stop  offset="0" style="stop-color:#169133"/>
				<stop  offset="1" style="stop-color:#FFFFFF"/>
				<a:midPointStop  offset="0" style="stop-color:#169133"/>
				<a:midPointStop  offset="0.5" style="stop-color:#169133"/>
				<a:midPointStop  offset="1" style="stop-color:#FFFFFF"/>
			</linearGradient>
			<path i:knockout="Off" fill="url(#XMLID_11_)" stroke="#000000" d="M644,140.235c0,3.119-2.551,5.669-5.669,5.669H525.831
				c-3.118,0-5.669-2.551-5.669-5.669v-36.934c0-3.118,2.551-5.669,5.669-5.669h112.501c3.118,0,5.669,2.551,5.669,5.669V140.235z"
				/>
			<g i:knockout="Off">
				<path i:knockout="Off" d="M547.048,115.419h1.584v10.818h5.184v1.314h-6.768V115.419z"/>
				<path i:knockout="Off" d="M558.802,127.75c-2.34,0-4.176-1.728-4.176-4.482c0-2.916,1.926-4.626,4.32-4.626
					c2.502,0,4.194,1.818,4.194,4.464c0,3.24-2.25,4.645-4.32,4.645H558.802z M558.857,126.561c1.512,0,2.646-1.422,2.646-3.402
					c0-1.476-0.738-3.33-2.61-3.33c-1.854,0-2.664,1.728-2.664,3.384c0,1.908,1.08,3.348,2.61,3.348H558.857z"/>
				<path i:knockout="Off" d="M571.367,127.245c-0.414,0.198-1.332,0.504-2.502,0.504c-2.629,0-4.338-1.782-4.338-4.464
					s1.836-4.644,4.68-4.644c0.936,0,1.764,0.234,2.195,0.468l-0.359,1.206c-0.378-0.198-0.973-0.414-1.836-0.414
					c-1.998,0-3.078,1.494-3.078,3.312c0,2.016,1.296,3.258,3.023,3.258c0.9,0,1.494-0.216,1.944-0.414L571.367,127.245z"/>
				<path i:knockout="Off" d="M579.376,125.463c0,0.756,0.035,1.494,0.125,2.088h-1.422l-0.144-1.098h-0.054
					c-0.469,0.684-1.422,1.296-2.664,1.296c-1.765,0-2.664-1.242-2.664-2.502c0-2.106,1.871-3.258,5.238-3.24v-0.18
					c0-0.72-0.199-2.034-1.98-2.016c-0.828,0-1.674,0.234-2.286,0.648l-0.36-1.062c0.721-0.45,1.782-0.756,2.881-0.756
					c2.682,0,3.33,1.818,3.33,3.564V125.463z M577.828,123.105c-1.729-0.036-3.689,0.27-3.689,1.962
					c0,1.044,0.684,1.512,1.476,1.512c1.151,0,1.89-0.72,2.142-1.458c0.055-0.162,0.072-0.342,0.072-0.504V123.105z"/>
				<path i:knockout="Off" d="M581.914,114.771h1.584v12.78h-1.584V114.771z"/>
				<path i:knockout="Off" d="M597.465,114.771v10.53c0,0.774,0.019,1.656,0.072,2.25h-1.422l-0.072-1.512h-0.036
					c-0.486,0.972-1.529,1.71-2.951,1.71c-2.107,0-3.744-1.782-3.744-4.428c-0.019-2.916,1.799-4.68,3.905-4.68
					c1.351,0,2.25,0.63,2.628,1.314h0.036v-5.184H597.465z M595.881,122.385c0-0.216-0.019-0.468-0.071-0.684
					c-0.234-0.99-1.099-1.818-2.287-1.818c-1.638,0-2.609,1.44-2.609,3.348c0,1.782,0.882,3.24,2.574,3.24
					c1.062,0,2.033-0.72,2.322-1.89c0.053-0.216,0.071-0.432,0.071-0.684V122.385z"/>
				<path i:knockout="Off" d="M600.849,117.237c-0.594,0-0.989-0.468-0.989-1.026c0-0.558,0.414-1.008,1.026-1.008
					c0.611,0,1.008,0.45,1.008,1.008c0,0.558-0.396,1.026-1.026,1.026H600.849z M600.093,127.551v-8.712h1.584v8.712H600.093z"/>
				<path i:knockout="Off" d="M604.089,125.949c0.486,0.288,1.314,0.612,2.105,0.612c1.135,0,1.674-0.558,1.674-1.296
					c0-0.756-0.449-1.17-1.602-1.602c-1.584-0.576-2.322-1.422-2.322-2.466c0-1.404,1.152-2.556,3.006-2.556
					c0.883,0,1.656,0.234,2.125,0.54l-0.379,1.134c-0.342-0.198-0.972-0.504-1.781-0.504c-0.937,0-1.44,0.54-1.44,1.188
					c0,0.738,0.504,1.062,1.638,1.494c1.494,0.558,2.287,1.314,2.287,2.628c0,1.548-1.207,2.628-3.24,2.628
					c-0.955,0-1.836-0.252-2.448-0.612L604.089,125.949z"/>
				<path i:knockout="Off" d="M613.017,122.835h0.036c0.216-0.306,0.504-0.702,0.756-0.99l2.574-3.006h1.89l-3.365,3.582l3.834,5.13
					h-1.926l-2.988-4.194l-0.811,0.918v3.276h-1.584v-12.78h1.584V122.835z"/>
			</g>
			<path i:knockout="Off" fill="#CCCCCC" d="M651,252.739c0,3.119-2.551,5.669-5.669,5.669H532.831
				c-3.118,0-5.669-2.551-5.669-5.669v-36.935c0-3.118,2.551-5.669,5.669-5.669h112.501c3.118,0,5.669,2.551,5.669,5.669V252.739z"
				/>
			<linearGradient id="XMLID_12_" gradientUnits="userSpaceOnUse" x1="309.0161" y1="229.272" x2="684.5203" y2="229.272">
				<stop  offset="0" style="stop-color:#169133"/>
				<stop  offset="1" style="stop-color:#FFFFFF"/>
				<a:midPointStop  offset="0" style="stop-color:#169133"/>
				<a:midPointStop  offset="0.5" style="stop-color:#169133"/>
				<a:midPointStop  offset="1" style="stop-color:#FFFFFF"/>
			</linearGradient>
			<path i:knockout="Off" fill="url(#XMLID_12_)" stroke="#000000" d="M644,247.739c0,3.119-2.551,5.669-5.669,5.669H525.831
				c-3.118,0-5.669-2.551-5.669-5.669v-36.934c0-3.118,2.551-5.669,5.669-5.669h112.501c3.118,0,5.669,2.551,5.669,5.669V247.739z"
				/>
			<g i:knockout="Off">
				<path i:knockout="Off" d="M537.445,223.103c0.792-0.162,1.943-0.27,3.006-0.27c1.674,0,2.771,0.324,3.527,1.008
					c0.595,0.522,0.955,1.35,0.955,2.304c0,1.584-1.026,2.646-2.287,3.078v0.054c0.919,0.324,1.477,1.188,1.783,2.448
					c0.396,1.692,0.684,2.862,0.918,3.33h-1.621c-0.197-0.342-0.467-1.386-0.791-2.898c-0.36-1.674-1.026-2.304-2.448-2.358h-1.476
					v5.256h-1.566V223.103z M539.011,228.611h1.602c1.674,0,2.736-0.918,2.736-2.304c0-1.566-1.135-2.25-2.791-2.25
					c-0.756,0-1.277,0.072-1.547,0.144V228.611z"/>
				<path i:knockout="Off" d="M548.027,230.969c0.037,2.142,1.387,3.024,2.971,3.024c1.134,0,1.836-0.198,2.412-0.432l0.288,1.116
					c-0.558,0.252-1.53,0.558-2.916,0.558c-2.664,0-4.284-1.782-4.284-4.392c0-2.646,1.566-4.716,4.104-4.716
					c2.844,0,3.582,2.502,3.582,4.104c0,0.324-0.018,0.576-0.054,0.756L548.027,230.969z M552.654,229.835
					c0.018-0.99-0.414-2.574-2.178-2.574c-1.621,0-2.305,1.476-2.431,2.574H552.654z"/>
				<path i:knockout="Off" d="M556.145,228.701c0-0.918-0.036-1.638-0.071-2.358h1.385l0.072,1.404h0.055
					c0.486-0.828,1.295-1.602,2.754-1.602c1.17,0,2.07,0.72,2.447,1.746h0.037c0.27-0.504,0.629-0.864,0.989-1.134
					c0.522-0.396,1.08-0.612,1.908-0.612c1.17,0,2.88,0.756,2.88,3.78v5.13h-1.548v-4.932c0-1.692-0.63-2.682-1.89-2.682
					c-0.918,0-1.603,0.666-1.891,1.422c-0.072,0.234-0.126,0.522-0.126,0.792v5.4h-1.548v-5.22c0-1.404-0.611-2.394-1.818-2.394
					c-0.972,0-1.709,0.792-1.962,1.584c-0.09,0.234-0.126,0.504-0.126,0.774v5.256h-1.548V228.701z"/>
				<path i:knockout="Off" d="M574.703,235.253c-2.34,0-4.176-1.728-4.176-4.482c0-2.916,1.926-4.626,4.32-4.626
					c2.502,0,4.194,1.818,4.194,4.464c0,3.24-2.25,4.645-4.32,4.645H574.703z M574.757,234.065c1.512,0,2.646-1.422,2.646-3.402
					c0-1.476-0.738-3.33-2.61-3.33c-1.854,0-2.664,1.728-2.664,3.384c0,1.908,1.08,3.348,2.61,3.348H574.757z"/>
				<path i:knockout="Off" d="M582.947,224.255v2.088h2.269v1.206h-2.269v4.698c0,1.08,0.307,1.692,1.188,1.692
					c0.432,0,0.685-0.036,0.918-0.108l0.071,1.206c-0.305,0.108-0.791,0.216-1.403,0.216c-0.738,0-1.332-0.252-1.71-0.666
					c-0.432-0.486-0.612-1.26-0.612-2.286v-4.752h-1.35v-1.206h1.35v-1.602L582.947,224.255z"/>
				<path i:knockout="Off" d="M587.792,230.969c0.036,2.142,1.386,3.024,2.97,3.024c1.135,0,1.836-0.198,2.412-0.432l0.289,1.116
					c-0.559,0.252-1.531,0.558-2.916,0.558c-2.664,0-4.285-1.782-4.285-4.392c0-2.646,1.566-4.716,4.104-4.716
					c2.844,0,3.582,2.502,3.582,4.104c0,0.324-0.019,0.576-0.054,0.756L587.792,230.969z M592.417,229.835
					c0.018-0.99-0.414-2.574-2.178-2.574c-1.62,0-2.305,1.476-2.43,2.574H592.417z"/>
				<path i:knockout="Off" d="M607.25,222.275v10.53c0,0.774,0.018,1.656,0.072,2.25H605.9l-0.072-1.512h-0.037
					c-0.485,0.972-1.529,1.71-2.951,1.71c-2.106,0-3.744-1.782-3.744-4.428c-0.018-2.916,1.8-4.68,3.906-4.68
					c1.35,0,2.25,0.63,2.628,1.314h0.036v-5.184H607.25z M605.666,229.889c0-0.216-0.019-0.468-0.072-0.684
					c-0.234-0.99-1.098-1.818-2.286-1.818c-1.638,0-2.61,1.44-2.61,3.348c0,1.782,0.883,3.24,2.574,3.24
					c1.062,0,2.034-0.72,2.322-1.89c0.054-0.216,0.072-0.432,0.072-0.684V229.889z"/>
				<path i:knockout="Off" d="M610.632,224.741c-0.594,0-0.989-0.468-0.989-1.026c0-0.558,0.414-1.008,1.026-1.008
					c0.611,0,1.008,0.45,1.008,1.008c0,0.558-0.396,1.026-1.026,1.026H610.632z M609.876,235.055v-8.712h1.584v8.712H609.876z"/>
				<path i:knockout="Off" d="M613.873,233.453c0.486,0.288,1.314,0.612,2.106,0.612c1.134,0,1.674-0.558,1.674-1.296
					c0-0.756-0.45-1.17-1.603-1.602c-1.584-0.576-2.321-1.422-2.321-2.466c0-1.404,1.151-2.556,3.006-2.556
					c0.882,0,1.656,0.234,2.124,0.54l-0.378,1.134c-0.342-0.198-0.972-0.504-1.782-0.504c-0.936,0-1.439,0.54-1.439,1.188
					c0,0.738,0.504,1.062,1.638,1.494c1.494,0.558,2.286,1.314,2.286,2.628c0,1.548-1.206,2.628-3.24,2.628
					c-0.954,0-1.836-0.252-2.447-0.612L613.873,233.453z"/>
				<path i:knockout="Off" d="M622.8,230.339h0.037c0.215-0.306,0.504-0.702,0.756-0.99l2.574-3.006h1.889l-3.365,3.582l3.834,5.13
					h-1.926l-2.988-4.194l-0.811,0.918v3.276h-1.584v-12.78h1.584V230.339z"/>
			</g>
			<path i:knockout="Off" fill="#CCCCCC" d="M651,360.239c0,3.119-2.551,5.669-5.669,5.669H532.831
				c-3.118,0-5.669-2.551-5.669-5.669v-36.935c0-3.118,2.551-5.669,5.669-5.669h112.501c3.118,0,5.669,2.551,5.669,5.669V360.239z"
				/>
			<linearGradient id="XMLID_13_" gradientUnits="userSpaceOnUse" x1="309.0161" y1="336.772" x2="684.5203" y2="336.772">
				<stop  offset="0" style="stop-color:#169133"/>
				<stop  offset="1" style="stop-color:#FFFFFF"/>
				<a:midPointStop  offset="0" style="stop-color:#169133"/>
				<a:midPointStop  offset="0.5" style="stop-color:#169133"/>
				<a:midPointStop  offset="1" style="stop-color:#FFFFFF"/>
			</linearGradient>
			<path i:knockout="Off" fill="url(#XMLID_13_)" stroke="#000000" d="M644,355.239c0,3.119-2.551,5.669-5.669,5.669H525.831
				c-3.118,0-5.669-2.551-5.669-5.669v-36.934c0-3.118,2.551-5.669,5.669-5.669h112.501c3.118,0,5.669,2.551,5.669,5.669V355.239z"
				/>
			<g i:knockout="Off">
				<path i:knockout="Off" d="M528.787,340.647c0.703,0.45,1.711,0.792,2.791,0.792c1.602,0,2.537-0.828,2.537-2.07
					c0-1.116-0.647-1.782-2.285-2.394c-1.98-0.72-3.205-1.764-3.205-3.456c0-1.89,1.566-3.294,3.925-3.294
					c1.224,0,2.142,0.288,2.664,0.594l-0.433,1.278c-0.377-0.234-1.188-0.576-2.285-0.576c-1.656,0-2.287,0.99-2.287,1.818
					c0,1.134,0.738,1.692,2.412,2.34c2.053,0.81,3.078,1.782,3.078,3.564c0,1.872-1.367,3.51-4.229,3.51
					c-1.17,0-2.448-0.36-3.097-0.792L528.787,340.647z"/>
				<path i:knockout="Off" d="M539.643,331.755v2.088h2.269v1.206h-2.269v4.698c0,1.08,0.306,1.692,1.188,1.692
					c0.432,0,0.684-0.036,0.918-0.108l0.071,1.206c-0.306,0.108-0.792,0.216-1.403,0.216c-0.738,0-1.332-0.252-1.711-0.666
					c-0.432-0.486-0.611-1.26-0.611-2.286v-4.752h-1.35v-1.206h1.35v-1.602L539.643,331.755z"/>
				<path i:knockout="Off" d="M547.133,342.753c-2.34,0-4.176-1.728-4.176-4.482c0-2.916,1.926-4.626,4.319-4.626
					c2.502,0,4.195,1.818,4.195,4.464c0,3.24-2.25,4.645-4.32,4.645H547.133z M547.187,341.565c1.513,0,2.646-1.422,2.646-3.402
					c0-1.476-0.738-3.33-2.609-3.33c-1.854,0-2.664,1.728-2.664,3.384c0,1.908,1.08,3.348,2.609,3.348H547.187z"/>
				<path i:knockout="Off" d="M553.488,336.561c0-1.026-0.019-1.908-0.072-2.718h1.386l0.071,1.71h0.055
					c0.396-1.17,1.368-1.908,2.43-1.908c0.162,0,0.289,0.018,0.432,0.054v1.476c-0.18-0.018-0.342-0.036-0.557-0.036
					c-1.117,0-1.908,0.846-2.125,2.016c-0.035,0.234-0.054,0.486-0.054,0.756v4.644h-1.584L553.488,336.561z"/>
				<path i:knockout="Off" d="M565.388,340.467c0,0.756,0.035,1.494,0.125,2.088h-1.422l-0.144-1.098h-0.054
					c-0.469,0.684-1.422,1.296-2.664,1.296c-1.765,0-2.664-1.242-2.664-2.502c0-2.106,1.871-3.258,5.238-3.24v-0.18
					c0-0.72-0.199-2.034-1.98-2.016c-0.828,0-1.674,0.234-2.286,0.648l-0.36-1.062c0.721-0.45,1.782-0.756,2.881-0.756
					c2.682,0,3.33,1.818,3.33,3.564V340.467z M563.839,338.109c-1.729-0.036-3.689,0.27-3.689,1.962
					c0,1.044,0.684,1.512,1.476,1.512c1.151,0,1.89-0.72,2.142-1.458c0.055-0.162,0.072-0.342,0.072-0.504V338.109z"/>
				<path i:knockout="Off" d="M575.377,341.277c0,2.016-0.414,3.222-1.242,3.996c-0.864,0.774-2.088,1.044-3.187,1.044
					c-1.043,0-2.195-0.252-2.897-0.72l0.396-1.224c0.576,0.378,1.477,0.702,2.557,0.702c1.62,0,2.809-0.846,2.809-3.06v-0.954
					h-0.037c-0.467,0.81-1.422,1.458-2.771,1.458c-2.16,0-3.708-1.836-3.708-4.266c0-2.952,1.926-4.608,3.942-4.608
					c1.512,0,2.322,0.774,2.718,1.494h0.036l0.054-1.296h1.403c-0.053,0.612-0.071,1.314-0.071,2.376V341.277z M573.793,337.263
					c0-0.252-0.019-0.486-0.091-0.702c-0.287-0.936-1.043-1.692-2.213-1.692c-1.512,0-2.592,1.278-2.592,3.312
					c0,1.692,0.881,3.132,2.573,3.132c0.99,0,1.872-0.612,2.196-1.638c0.09-0.252,0.126-0.558,0.126-0.846V337.263z"/>
				<path i:knockout="Off" d="M578.887,338.469c0.036,2.142,1.386,3.024,2.97,3.024c1.135,0,1.836-0.198,2.412-0.432l0.289,1.116
					c-0.559,0.252-1.531,0.558-2.916,0.558c-2.664,0-4.285-1.782-4.285-4.392c0-2.646,1.566-4.716,4.104-4.716
					c2.844,0,3.582,2.502,3.582,4.104c0,0.324-0.019,0.576-0.054,0.756L578.887,338.469z M583.513,337.335
					c0.018-0.99-0.414-2.574-2.178-2.574c-1.62,0-2.305,1.476-2.43,2.574H583.513z"/>
				<path i:knockout="Off" d="M590.821,336.201c0-0.918-0.036-1.638-0.071-2.358h1.385l0.072,1.404h0.055
					c0.486-0.828,1.295-1.602,2.754-1.602c1.17,0,2.07,0.72,2.447,1.746h0.037c0.27-0.504,0.629-0.864,0.989-1.134
					c0.522-0.396,1.08-0.612,1.908-0.612c1.17,0,2.88,0.756,2.88,3.78v5.13h-1.548v-4.932c0-1.692-0.63-2.682-1.89-2.682
					c-0.918,0-1.603,0.666-1.891,1.422c-0.072,0.234-0.126,0.522-0.126,0.792v5.4h-1.548v-5.22c0-1.404-0.611-2.394-1.818-2.394
					c-0.972,0-1.709,0.792-1.962,1.584c-0.09,0.234-0.126,0.504-0.126,0.774v5.256h-1.548V336.201z"/>
				<path i:knockout="Off" d="M606.733,338.469c0.036,2.142,1.386,3.024,2.97,3.024c1.135,0,1.836-0.198,2.412-0.432l0.289,1.116
					c-0.559,0.252-1.531,0.558-2.916,0.558c-2.664,0-4.285-1.782-4.285-4.392c0-2.646,1.566-4.716,4.104-4.716
					c2.844,0,3.582,2.502,3.582,4.104c0,0.324-0.019,0.576-0.054,0.756L606.733,338.469z M611.359,337.335
					c0.018-0.99-0.414-2.574-2.178-2.574c-1.62,0-2.305,1.476-2.43,2.574H611.359z"/>
				<path i:knockout="Off" d="M622.375,329.775v10.53c0,0.774,0.019,1.656,0.072,2.25h-1.422l-0.072-1.512h-0.035
					c-0.486,0.972-1.53,1.71-2.952,1.71c-2.106,0-3.744-1.782-3.744-4.428c-0.019-2.916,1.8-4.68,3.905-4.68
					c1.351,0,2.25,0.63,2.629,1.314h0.035v-5.184H622.375z M620.791,337.389c0-0.216-0.018-0.468-0.071-0.684
					c-0.233-0.99-1.099-1.818-2.286-1.818c-1.639,0-2.609,1.44-2.609,3.348c0,1.782,0.881,3.24,2.573,3.24
					c1.062,0,2.034-0.72,2.322-1.89c0.054-0.216,0.071-0.432,0.071-0.684V337.389z"/>
				<path i:knockout="Off" d="M625.759,332.241c-0.594,0-0.99-0.468-0.99-1.026c0-0.558,0.414-1.008,1.025-1.008
					c0.613,0,1.008,0.45,1.008,1.008c0,0.558-0.395,1.026-1.025,1.026H625.759z M625.003,342.555v-8.712h1.584v8.712H625.003z"/>
				<path i:knockout="Off" d="M635.353,340.467c0,0.756,0.036,1.494,0.126,2.088h-1.422l-0.144-1.098h-0.055
					c-0.468,0.684-1.422,1.296-2.664,1.296c-1.764,0-2.664-1.242-2.664-2.502c0-2.106,1.872-3.258,5.238-3.24v-0.18
					c0-0.72-0.198-2.034-1.98-2.016c-0.828,0-1.674,0.234-2.285,0.648l-0.36-1.062c0.72-0.45,1.782-0.756,2.88-0.756
					c2.682,0,3.33,1.818,3.33,3.564V340.467z M633.804,338.109c-1.727-0.036-3.689,0.27-3.689,1.962
					c0,1.044,0.684,1.512,1.477,1.512c1.151,0,1.89-0.72,2.142-1.458c0.054-0.162,0.071-0.342,0.071-0.504V338.109z"/>
			</g>
			<path i:knockout="Off" fill="#CCCCCC" d="M401.264,253.134c0,3.118-2.551,5.669-5.67,5.669h-112.5
				c-3.119,0-5.67-2.551-5.67-5.669V108.481c0-3.118,2.551-5.669,5.67-5.669h112.5c3.119,0,5.67,2.551,5.67,5.669V253.134z"/>
			<linearGradient id="XMLID_14_" gradientUnits="userSpaceOnUse" x1="59.2773" y1="175.8071" x2="434.7845" y2="175.8071">
				<stop  offset="0" style="stop-color:#169133"/>
				<stop  offset="1" style="stop-color:#FFFFFF"/>
				<a:midPointStop  offset="0" style="stop-color:#169133"/>
				<a:midPointStop  offset="0.5" style="stop-color:#169133"/>
				<a:midPointStop  offset="1" style="stop-color:#FFFFFF"/>
			</linearGradient>
			<path i:knockout="Off" fill="url(#XMLID_14_)" stroke="#000000" d="M394.264,248.134c0,3.118-2.551,5.669-5.67,5.669h-112.5
				c-3.119,0-5.67-2.551-5.67-5.669V103.481c0-3.118,2.551-5.669,5.67-5.669h112.5c3.119,0,5.67,2.551,5.67,5.669V248.134z"/>
			<g i:knockout="Off">
				<path i:knockout="Off" d="M278.644,156.015c0.972-0.144,2.106-0.252,3.348-0.252c2.25,0,3.852,0.504,4.914,1.494
					c1.098,0.99,1.728,2.412,1.728,4.374c0,1.98-0.63,3.6-1.746,4.716c-1.152,1.134-3.024,1.746-5.382,1.746
					c-1.134,0-2.052-0.036-2.862-0.144V156.015z M280.228,166.761c0.396,0.072,0.972,0.072,1.584,0.072
					c3.348,0.018,5.166-1.872,5.166-5.148c0.018-2.898-1.602-4.68-4.914-4.68c-0.81,0-1.422,0.072-1.836,0.162V166.761z"/>
				<path i:knockout="Off" d="M297.92,165.609c0,0.9,0.018,1.692,0.072,2.376h-1.404l-0.09-1.422h-0.036
					c-0.396,0.702-1.332,1.62-2.88,1.62c-1.368,0-3.006-0.774-3.006-3.816v-5.094h1.584v4.806c0,1.656,0.522,2.79,1.944,2.79
					c1.062,0,1.8-0.738,2.088-1.458c0.09-0.216,0.144-0.504,0.144-0.81v-5.328h1.584V165.609z"/>
				<path i:knockout="Off" d="M300.548,161.631c0-0.918-0.036-1.638-0.072-2.358h1.386l0.072,1.404h0.054
					c0.486-0.828,1.296-1.602,2.754-1.602c1.17,0,2.07,0.72,2.448,1.746h0.036c0.27-0.504,0.63-0.864,0.99-1.134
					c0.522-0.396,1.08-0.612,1.908-0.612c1.17,0,2.88,0.756,2.88,3.78v5.13h-1.548v-4.932c0-1.692-0.63-2.682-1.89-2.682
					c-0.918,0-1.602,0.666-1.89,1.422c-0.072,0.234-0.126,0.522-0.126,0.792v5.4h-1.548v-5.22c0-1.404-0.612-2.394-1.818-2.394
					c-0.972,0-1.71,0.792-1.962,1.584c-0.09,0.234-0.126,0.504-0.126,0.774v5.256h-1.548V161.631z"/>
				<path i:knockout="Off" d="M315.56,162.117c0-1.116-0.018-2.016-0.072-2.844h1.422l0.09,1.494h0.036
					c0.63-1.08,1.674-1.692,3.078-1.692c2.124,0,3.708,1.782,3.708,4.428c0,3.132-1.926,4.68-3.96,4.68
					c-1.17,0-2.16-0.504-2.682-1.368h-0.036v4.734h-1.584V162.117z M317.144,164.439c0,0.216,0.018,0.45,0.072,0.648
					c0.27,1.098,1.242,1.854,2.358,1.854c1.674,0,2.646-1.368,2.646-3.366c0-1.746-0.9-3.24-2.574-3.24
					c-1.08,0-2.106,0.756-2.412,1.944c-0.036,0.216-0.09,0.45-0.09,0.648V164.439z"/>
				<path i:knockout="Off" d="M329.474,162.549v1.152h-4.446v-1.152H329.474z"/>
				<path i:knockout="Off" d="M337.538,167.679c-0.414,0.198-1.332,0.504-2.502,0.504c-2.628,0-4.338-1.782-4.338-4.464
					s1.836-4.644,4.68-4.644c0.936,0,1.764,0.234,2.196,0.468l-0.36,1.206c-0.378-0.198-0.972-0.414-1.836-0.414
					c-1.998,0-3.078,1.494-3.078,3.312c0,2.016,1.296,3.258,3.024,3.258c0.9,0,1.494-0.216,1.944-0.414L337.538,167.679z"/>
				<path i:knockout="Off" d="M345.547,165.897c0,0.756,0.036,1.494,0.126,2.088h-1.422l-0.144-1.098h-0.054
					c-0.468,0.684-1.422,1.296-2.664,1.296c-1.764,0-2.664-1.242-2.664-2.502c0-2.106,1.872-3.258,5.238-3.24v-0.18
					c0-0.72-0.198-2.034-1.98-2.016c-0.828,0-1.674,0.234-2.286,0.648l-0.36-1.062c0.72-0.45,1.782-0.756,2.88-0.756
					c2.682,0,3.33,1.818,3.33,3.564V165.897z M343.999,163.539c-1.728-0.036-3.69,0.27-3.69,1.962c0,1.044,0.684,1.512,1.476,1.512
					c1.152,0,1.89-0.72,2.142-1.458c0.054-0.162,0.072-0.342,0.072-0.504V163.539z"/>
				<path i:knockout="Off" d="M348.085,162.117c0-1.116-0.018-2.016-0.072-2.844h1.422l0.09,1.494h0.036
					c0.63-1.08,1.674-1.692,3.078-1.692c2.124,0,3.708,1.782,3.708,4.428c0,3.132-1.926,4.68-3.96,4.68
					c-1.17,0-2.16-0.504-2.682-1.368h-0.036v4.734h-1.584V162.117z M349.669,164.439c0,0.216,0.018,0.45,0.072,0.648
					c0.27,1.098,1.242,1.854,2.358,1.854c1.674,0,2.646-1.368,2.646-3.366c0-1.746-0.9-3.24-2.574-3.24
					c-1.08,0-2.106,0.756-2.412,1.944c-0.036,0.216-0.09,0.45-0.09,0.648V164.439z"/>
				<path i:knockout="Off" d="M360.235,157.185v2.088h2.268v1.206h-2.268v4.698c0,1.08,0.306,1.692,1.188,1.692
					c0.432,0,0.684-0.036,0.918-0.108l0.072,1.206c-0.306,0.108-0.792,0.216-1.404,0.216c-0.738,0-1.332-0.252-1.71-0.666
					c-0.432-0.486-0.612-1.26-0.612-2.286v-4.752h-1.35v-1.206h1.35v-1.602L360.235,157.185z"/>
				<path i:knockout="Off" d="M371.575,165.609c0,0.9,0.018,1.692,0.072,2.376h-1.404l-0.09-1.422h-0.036
					c-0.396,0.702-1.332,1.62-2.88,1.62c-1.368,0-3.006-0.774-3.006-3.816v-5.094h1.584v4.806c0,1.656,0.522,2.79,1.944,2.79
					c1.062,0,1.8-0.738,2.088-1.458c0.09-0.216,0.144-0.504,0.144-0.81v-5.328h1.584V165.609z"/>
				<path i:knockout="Off" d="M374.221,161.991c0-1.026-0.018-1.908-0.072-2.718h1.386l0.072,1.71h0.054
					c0.396-1.17,1.368-1.908,2.43-1.908c0.162,0,0.288,0.018,0.432,0.054v1.476c-0.18-0.018-0.342-0.036-0.558-0.036
					c-1.116,0-1.908,0.846-2.124,2.016c-0.036,0.234-0.054,0.486-0.054,0.756v4.644h-1.584L374.221,161.991z"/>
				<path i:knockout="Off" d="M380.883,163.899c0.036,2.142,1.386,3.024,2.97,3.024c1.134,0,1.836-0.198,2.412-0.432l0.288,1.116
					c-0.558,0.252-1.53,0.558-2.916,0.558c-2.664,0-4.284-1.782-4.284-4.392c0-2.646,1.566-4.716,4.104-4.716
					c2.844,0,3.582,2.502,3.582,4.104c0,0.324-0.018,0.576-0.054,0.756L380.883,163.899z M385.509,162.765
					c0.018-0.99-0.414-2.574-2.178-2.574c-1.62,0-2.304,1.476-2.43,2.574H385.509z"/>
				<path i:knockout="Off" d="M312.079,184.869h0.036c0.216-0.306,0.504-0.702,0.756-0.99l2.574-3.006h1.89l-3.366,3.582l3.834,5.13
					h-1.926l-2.988-4.194l-0.81,0.918v3.276h-1.584v-12.78h1.584V184.869z"/>
				<path i:knockout="Off" d="M319.96,185.499c0.036,2.142,1.386,3.024,2.97,3.024c1.134,0,1.836-0.198,2.412-0.432l0.288,1.116
					c-0.558,0.252-1.53,0.558-2.916,0.558c-2.664,0-4.284-1.782-4.284-4.392c0-2.646,1.566-4.716,4.104-4.716
					c2.844,0,3.582,2.502,3.582,4.104c0,0.324-0.018,0.576-0.054,0.756L319.96,185.499z M324.586,184.365
					c0.018-0.99-0.414-2.574-2.178-2.574c-1.62,0-2.304,1.476-2.43,2.574H324.586z"/>
				<path i:knockout="Off" d="M328.096,183.591c0-1.026-0.018-1.908-0.072-2.718h1.386l0.072,1.71h0.054
					c0.396-1.17,1.368-1.908,2.43-1.908c0.162,0,0.288,0.018,0.432,0.054v1.476c-0.18-0.018-0.342-0.036-0.558-0.036
					c-1.116,0-1.908,0.846-2.124,2.016c-0.036,0.234-0.054,0.486-0.054,0.756v4.644h-1.584L328.096,183.591z"/>
				<path i:knockout="Off" d="M334.034,183.231c0-0.918-0.018-1.638-0.072-2.358h1.404l0.09,1.422h0.036
					c0.432-0.81,1.44-1.62,2.88-1.62c1.206,0,3.078,0.72,3.078,3.708v5.202h-1.584v-5.022c0-1.404-0.522-2.592-2.016-2.592
					c-1.026,0-1.836,0.738-2.124,1.62c-0.072,0.198-0.108,0.486-0.108,0.738v5.256h-1.584V183.231z"/>
				<path i:knockout="Off" d="M344.924,185.499c0.036,2.142,1.386,3.024,2.97,3.024c1.134,0,1.836-0.198,2.412-0.432l0.288,1.116
					c-0.558,0.252-1.53,0.558-2.916,0.558c-2.664,0-4.284-1.782-4.284-4.392c0-2.646,1.566-4.716,4.104-4.716
					c2.844,0,3.582,2.502,3.582,4.104c0,0.324-0.018,0.576-0.054,0.756L344.924,185.499z M349.55,184.365
					c0.018-0.99-0.414-2.574-2.178-2.574c-1.62,0-2.304,1.476-2.43,2.574H349.55z"/>
				<path i:knockout="Off" d="M353.042,176.805h1.584v12.78h-1.584V176.805z"/>
			</g>
			<g i:knockout="On"  a:adobe-knockout="true">
				<polygon i:knockout="Off" fill="#FFFFFF" stroke="#000000"  a:adobe-knockout="false" points="337.51,264.029 332.524,255.392 
					327.539,264.029 "/>
			</g>
			<polyline i:knockout="Off" fill="none" stroke="#000000" points="332.508,264.272 332.508,432.138 78.68,432.138 78.68,397.775 
				"/>
			<line i:knockout="Off" fill="none" stroke="#000000" x1="394.664" y1="122.772" x2="511.339" y2="122.772"/>
			<polyline i:knockout="Off" fill="none" stroke="#000000" points="394.664,175.426 474.326,175.426 474.395,228.744 "/>
			<polyline i:knockout="Off" fill="none" stroke="#000000" points="394.664,228.08 429.643,228.08 429.643,336.572 "/>
			<g i:knockout="On"  a:adobe-knockout="true">
				<polygon i:knockout="Off" fill="#FFFFFF" stroke="#000000"  a:adobe-knockout="false" points="509.974,127.791 518.611,122.805 
					509.974,117.819 "/>
			</g>
			<g i:knockout="On"  a:adobe-knockout="true">
				<polygon i:knockout="Off" fill="#FFFFFF" stroke="#000000"  a:adobe-knockout="false" points="509.974,233.771 518.611,228.785 
					509.974,223.799 "/>
			</g>
			<g i:knockout="On"  a:adobe-knockout="true">
				<g i:knockout="On">
					
						<line i:knockout="Off" fill="#FFFFFF" stroke="#000000"  a:adobe-knockout="false" x1="485.31" y1="48.299" x2="571.13" y2="91.11"/>
				</g>
				<polygon i:knockout="Off" fill="#FFFFFF" stroke="#000000"  a:adobe-knockout="false" points="567.585,94.928 577.541,94.339 
					572.053,86.012 "/>
			</g>
			<g i:knockout="On"  a:adobe-knockout="true">
				<g i:knockout="On">
					
						<line i:knockout="Off" fill="#FFFFFF" stroke="#000000"  a:adobe-knockout="false" x1="423.31" y1="46.174" x2="369.704" y2="72.968"/>
				</g>
				<polygon i:knockout="Off" fill="#FFFFFF" stroke="#000000"  a:adobe-knockout="false" points="373.249,76.786 363.293,76.197 
					368.781,67.87 "/>
			</g>
		</g>
	</svg>
